<svg width="1600" height="225" viewBox="0 0 939 132" fill="none" xmlns="http://www.w3.org/2000/svg">
<path d="M277.763 131.689H292.065C294.6 131.689 296.591 129.718 296.591 127.211V4.52057C296.591 2.01336 294.6 0.0427246 292.065 0.0427246H277.763C275.229 0.0427246 273.237 2.01336 273.237 4.52057V54.1341C273.237 54.4926 272.875 54.8511 272.513 54.8511H206.251C205.889 54.8511 205.528 54.4926 205.528 54.1341V4.52057C205.528 2.01336 203.536 0.0427246 201.002 0.0427246H186.518C183.984 0.0427246 181.992 2.01336 181.992 4.52057V127.211C181.992 129.718 183.984 131.689 186.518 131.689H201.002C203.536 131.689 205.528 129.718 205.528 127.211V75.627C205.528 75.2685 205.89 74.91 206.251 74.91H272.513C272.876 74.91 273.237 75.2685 273.237 75.627V127.211C273.237 129.718 275.229 131.689 277.763 131.689Z" fill="#0A4517"/>
<path d="M343.483 91.6653H405.762C407.211 91.6653 408.478 90.591 408.659 88.9788C409.021 86.1131 409.021 83.2474 409.021 80.2024C409.021 50.1124 394.538 35.6045 364.847 35.6045C335.155 35.6045 319.224 51.0074 319.224 82.5316C319.224 114.056 336.627 133.046 372.269 131.787C387.426 131.251 391.823 131.07 399.607 129.816C403.555 129.118 403.408 127.666 403.408 125.338V114.413C403.408 113.583 403.022 112.795 402.356 112.29C401.89 111.937 401.426 111.733 400.914 111.632C400.454 111.54 399.979 111.546 399.517 111.623C391.152 113.005 382.619 113.697 374.26 113.697C353.44 113.697 342.758 106.533 342.758 92.2043V91.6268L343.482 91.6665L343.483 91.6653ZM342.759 75.1868C343.845 60.8582 351.449 53.5146 365.028 53.5146C378.606 53.5146 386.39 60.6789 386.39 74.471V75.188C386.39 75.5465 386.028 75.905 385.667 75.905H343.484C343.303 75.905 343.122 75.905 342.94 75.7258C342.759 75.5465 342.759 75.3673 342.759 75.188V75.1868Z" fill="#0A4517"/>
<path d="M500.629 40.6477C500.381 38.0707 498.314 37.871 496.865 37.5125C489.624 36.0796 483.611 35.6333 476.007 35.6333C447.472 35.6333 425.919 50.5538 424.047 81.8434C422.187 112.954 441.066 131.954 476.007 131.815C488.399 131.766 491.215 131.098 498.276 129.666C499.761 129.267 500.629 128.233 500.629 126.8V114.672C500.629 113.822 500.248 113.005 499.566 112.489C498.838 111.938 497.921 111.753 497.189 111.933C490.491 113.187 484.154 113.904 477.817 113.904C457.721 113.904 446.162 103.122 447.402 82.0226C448.564 62.2357 460.291 54.234 477.817 53.902C487.465 53.7191 492.21 54.7189 496.032 55.3396C497.492 55.4912 498.388 55.869 499.566 54.9956C500.629 54.2076 500.62 52.4053 500.629 51.2155C500.629 51.2083 500.629 51.2011 500.629 51.1939V40.6489V40.6477Z" fill="#0A4517"/>
<path d="M564.175 40.105C564.175 37.5978 562.183 35.6272 559.649 35.6272H538.647C538.285 35.6272 537.924 35.4479 537.924 35.0894L535.027 21.8351C534.483 19.8645 532.674 18.4316 530.682 18.4316H521.63C519.095 18.4316 517.104 20.4023 517.104 22.9095V106.375C517.104 123.569 525.07 131.987 541.183 131.987H558.2C560.735 131.987 562.726 130.017 562.726 127.51V118.375C562.726 115.867 560.735 113.897 558.2 113.897H553.312C544.803 113.897 540.639 109.06 540.639 99.3889V54.4324C540.639 54.0739 541.002 53.7154 541.363 53.7154H559.649C562.183 53.7154 564.175 51.7447 564.175 49.2375V40.1026V40.105Z" fill="#0A4517"/>
<path d="M611.79 131.904C621.928 131.904 631.343 129.039 639.852 123.307L640.021 123.191C640.154 123.099 640.333 123.109 640.456 123.213C640.557 123.3 640.672 123.402 640.756 123.485L647.998 130.65C648.903 131.545 649.99 131.903 651.257 131.903H658.318C660.818 131.903 662.844 129.899 662.844 127.425V67.0648C662.844 45.9304 648.722 35.6406 619.574 35.5419C615.513 35.5275 605.937 35.9016 596.207 36.9002C592.597 37.2707 589.608 38.1309 588.321 38.9009C584.641 41.1013 584.452 43.4184 584.452 45.1424V51.9831C584.452 52.0324 584.453 52.0878 584.456 52.1467C584.584 54.6239 586.685 56.5488 589.193 56.5524C590.343 56.5536 592.509 56.2528 592.827 56.1746C601.121 54.4831 609.98 53.4533 619.575 53.4533C629.17 53.4533 639.489 58.1104 639.489 67.2453V74.5889C639.489 74.7681 639.504 75.0015 639.293 75.1302C639.098 75.2505 638.778 75.1459 638.583 75.1266C631.885 73.873 625.186 73.3353 618.669 73.3353C590.245 73.3353 576.486 82.6495 576.486 101.635C576.486 120.621 586.786 131.904 610.684 131.904H611.79ZM618.488 89.0967C625.729 89.0967 632.43 89.8053 638.764 90.8881C639.261 90.9723 639.308 91.2466 639.308 91.6051V107.187C639.308 107.367 639.308 107.485 638.946 107.725C631.704 112.919 623.919 115.427 615.41 115.427C606.901 115.427 599.66 110.77 599.66 101.635C599.66 92.5002 605.491 89.1112 617.802 89.1112L618.489 89.0979L618.488 89.0967Z" fill="#0A4517"/>
<path d="M709.19 47.9913C709.009 47.9913 708.647 47.6327 708.647 47.4535L706.474 39.0356C705.93 37.0649 704.121 35.6321 702.129 35.6321H692.172C689.637 35.6321 687.646 37.6027 687.646 40.1099V127.336C687.646 129.844 689.637 131.814 692.172 131.814H706.474C709.008 131.814 711 129.844 711 127.336V66.2599C711 66.0807 711 65.9014 711.181 65.7222C717.699 58.9164 725.122 54.9751 733.268 54.2593C734.898 54.2593 735.984 52.8264 735.984 51.3935V38.8563C735.984 37.9612 735.622 37.2442 735.079 36.7064C734.356 36.1686 733.631 35.8113 732.726 35.9894C724.76 37.0637 717.157 41.005 709.914 47.9901C709.733 48.1693 709.37 48.1693 709.19 48.1693V47.9901V47.9913Z" fill="#0A4517"/>
<path d="M771.107 91.6653H833.386C834.835 91.6653 836.102 90.591 836.283 88.9788C836.645 86.1131 836.645 83.2474 836.645 80.2024C836.645 50.1124 822.162 35.6045 792.471 35.6045C762.779 35.6045 746.848 51.0074 746.848 82.5316C746.848 114.056 764.251 133.046 799.894 131.787C815.051 131.251 819.447 131.07 827.231 129.816C831.179 129.118 831.032 127.666 831.032 125.338V114.413C831.032 113.583 830.647 112.795 829.98 112.29C829.514 111.937 829.05 111.733 828.538 111.632C828.078 111.54 827.603 111.546 827.141 111.623C818.777 113.005 810.243 113.697 801.884 113.697C781.064 113.697 770.382 106.533 770.382 92.2043V91.6268L771.106 91.6665L771.107 91.6653ZM770.383 75.1868C771.469 60.8582 779.073 53.5146 792.652 53.5146C806.23 53.5146 814.014 60.6789 814.014 74.471V75.188C814.014 75.5465 813.652 75.905 813.291 75.905H771.108C770.927 75.905 770.746 75.905 770.565 75.7258C770.383 75.5465 770.383 75.3673 770.383 75.188V75.1868Z" fill="#0A4517"/>
<path d="M887.52 131.904C897.659 131.904 907.073 129.039 915.582 123.307L915.751 123.191C915.885 123.099 916.064 123.109 916.187 123.213C916.287 123.3 916.403 123.402 916.487 123.485L923.728 130.65C924.633 131.545 925.72 131.903 926.988 131.903H934.048C936.548 131.903 938.574 129.899 938.574 127.425V67.0648C938.574 45.9304 924.452 35.6406 895.304 35.5419C891.244 35.5275 881.667 35.9016 871.938 36.9002C868.327 37.2707 865.338 38.1309 864.051 38.9009C860.372 41.1013 860.182 43.4184 860.182 45.1424V51.9831C860.182 52.0324 860.183 52.0878 860.187 52.1467C860.315 54.6239 862.416 56.5488 864.923 56.5524C866.074 56.5536 868.24 56.2528 868.557 56.1746C876.852 54.4831 885.711 53.4533 895.306 53.4533C904.9 53.4533 915.22 58.1104 915.22 67.2453V74.5889C915.22 74.7681 915.234 75.0015 915.024 75.1302C914.828 75.2505 914.508 75.1459 914.314 75.1266C907.616 73.873 900.916 73.3353 894.4 73.3353C865.975 73.3353 852.217 82.6495 852.217 101.635C852.217 120.621 862.517 131.904 886.415 131.904H887.52ZM894.218 89.0967C901.46 89.0967 908.16 89.8053 914.495 90.8881C914.991 90.9723 915.039 91.2466 915.039 91.6051V107.187C915.039 107.367 915.039 107.485 914.676 107.725C907.435 112.919 899.649 115.427 891.141 115.427C882.632 115.427 875.39 110.77 875.39 101.635C875.39 92.5002 881.221 89.1112 893.533 89.1112L894.22 89.0979L894.218 89.0967Z" fill="#0A4517"/>
<path d="M133.559 120.156V102.45C133.559 99.1044 130.511 96.5946 127.171 97.0132L106.121 99.523C103.944 99.802 102.201 101.196 101.476 103.148L93.6368 124.479C92.3302 128.104 95.0888 131.73 99.0078 131.73H121.51C128.187 131.73 133.559 127.942 133.559 121.39V120.157V120.156Z" fill="#581C3D"/>
<path d="M133.505 44.9676C133.542 45.5437 133.559 46.1208 133.559 46.6978V82.5708C133.559 85.2726 131.596 87.4337 128.791 87.8384L101.464 91.3912C100.875 91.4674 100.281 91.4992 99.6881 91.4656C99.1973 91.4384 98.7064 91.3721 98.2156 91.2152L51.3708 76.3579C48.4259 75.4125 46.8828 72.3061 47.8644 69.4691L54.4561 50.6943C55.157 48.8035 56.9809 47.3174 59.0846 47.1823L127.388 40.2934C130.614 40.0231 133.194 40.9902 133.477 44.5285L133.505 44.9676Z" fill="#98C277"/>
<path d="M133.558 25.9075V11.5146C133.558 5.20949 128.345 0 122.033 0H96.9251C93.083 0 90.4768 3.83852 91.849 7.26456L100.492 29.4707C101.315 31.8011 103.648 33.1721 106.118 32.8977L128.619 30.2929C131.364 30.0186 133.559 28.5113 133.559 25.7694V25.9066L133.558 25.9075Z" fill="#CDDDB9"/>
<path d="M87.5697 23.7174L79.6389 3.58634C78.7994 1.51755 76.8393 0 74.4608 0H11.7571C5.17909 0 0 5.10296 0 11.5863V41.9308C0 44.1376 1.39983 46.0684 3.4991 47.0337L35.8306 59.9987C38.7694 61.1021 42.1284 59.7226 43.1089 56.6884L48.2871 42.2059C48.9865 40.1371 50.8066 38.7576 53.0459 38.6196L84.677 35.7235C88.3162 35.4474 90.5555 31.7239 89.2958 28.4137L87.5697 23.7174Z" fill="#0A4517"/>
<path d="M36.7246 74.4171C37.6946 71.601 36.4471 68.3621 33.6757 67.2355L7.48381 57.097C3.88108 55.6885 0 58.3645 0 62.3072V119.761C0 126.379 5.26631 131.729 11.7792 131.729H78.1606C80.5168 131.729 82.5956 130.18 83.2882 128.069L91.1872 104.553C92.1572 101.596 90.6333 98.3568 87.7222 97.3712L40.1876 81.7405C37.2775 80.7549 35.5302 77.637 36.6389 74.6791L36.7227 74.418L36.7246 74.4171Z" fill="#578A4F"/>
</svg>
