<svg xmlns="http://www.w3.org/2000/svg" viewBox="0 0 400 180"><!-- Natural Earth 1:110m land, public domain. --><path fill="#b8beb8" d="M124.7,172.4 L126.2,173.1 L127.7,173.4 L127.2,174.0 L126.2,174.1 L125.6,173.7 L125.2,174.2 L124.3,174.6 L123.1,174.4 L122.3,174.0 L121.1,173.9 L119.7,173.2 L118.6,172.5 L117.0,171.1 L118.0,171.4 L119.5,172.2 L121.0,172.6 L121.6,172.1 L121.9,171.2 L122.9,170.7 L123.7,170.9 L123.7,170.9 L124.2,171.4 L124.7,172.4 Z M134.9,169.0 L135.8,169.5 L135.5,169.9 L134.0,170.3 L133.5,169.9 L132.6,170.4 L132.0,169.9 L133.3,169.1 L134.3,169.4 L134.9,169.0 Z M278.1,167.2 L276.4,167.3 L276.4,166.6 L276.5,166.1 L276.6,165.9 L277.3,166.3 L278.4,166.4 L278.4,166.7 L278.1,167.2 Z M361.6,156.2 L362.6,156.6 L363.2,156.4 L364.1,156.2 L364.8,156.3 L364.8,157.7 L364.5,158.2 L364.3,159.2 L364.0,158.8 L363.2,159.7 L363.0,159.6 L362.3,159.6 L361.6,158.5 L361.4,157.7 L360.8,156.6 L360.8,156.0 L361.6,156.2 Z M392.2,156.3 L392.5,156.8 L393.3,156.3 L393.6,156.8 L393.6,157.4 L393.2,157.9 L392.5,158.9 L391.9,159.4 L392.3,160.0 L391.5,160.0 L390.5,160.4 L390.2,161.3 L389.6,162.5 L388.7,163.1 L388.1,163.4 L387.1,163.4 L386.4,163.0 L385.2,162.9 L385.0,162.4 L385.6,161.5 L387.0,160.3 L387.7,160.1 L388.5,159.6 L389.5,158.9 L390.1,158.3 L390.6,157.4 L391.1,157.1 L391.2,156.4 L392.0,155.8 L392.2,156.3 Z M394.0,150.4 L394.8,151.7 L394.8,150.9 L395.3,151.2 L395.5,152.1 L396.4,152.5 L397.2,152.6 L397.8,152.2 L398.4,152.3 L398.1,153.4 L397.7,154.1 L396.9,154.1 L396.6,154.5 L396.7,155.0 L396.5,155.3 L396.1,155.9 L395.6,156.8 L394.7,157.3 L394.5,156.9 L394.1,156.8 L394.7,155.7 L394.3,155.1 L393.1,154.6 L393.2,154.1 L394.0,153.7 L394.2,152.7 L394.1,151.9 L393.7,151.1 L393.7,150.9 L393.2,150.4 L392.3,149.3 L391.8,148.4 L392.2,148.3 L392.8,149.0 L393.7,149.3 L394.0,150.4 Z M385.7,133.0 L385.3,133.3 L384.7,133.0 L383.9,132.4 L383.1,131.8 L382.4,130.9 L382.3,130.5 L382.7,130.5 L383.4,130.9 L383.8,131.3 L384.2,131.7 L385.1,132.5 L385.7,133.0 Z M398.2,127.0 L398.6,127.4 L398.4,128.0 L397.7,128.2 L397.1,128.1 L397.0,127.5 L397.4,127.1 L397.9,127.2 L398.2,127.0 Z M399.3,126.4 L398.6,126.6 L398.4,126.2 L399.0,125.9 L399.3,125.8 L400.0,125.5 L400.0,126.1 L399.3,126.4 Z M0.1,126.0 L0.0,126.1 L0.0,125.5 L0.2,125.4 L0.1,126.0 Z M386.5,126.0 L386.1,126.1 L385.8,125.6 L385.8,125.2 L386.5,126.0 Z M385.7,124.1 L385.9,125.1 L385.6,124.9 L385.3,125.0 L385.2,124.6 L385.1,123.7 L385.7,124.1 Z M255.6,122.3 L255.8,123.8 L256.1,124.4 L256.0,125.0 L255.8,125.4 L255.4,124.7 L255.2,125.0 L255.4,125.9 L255.3,126.5 L255.0,126.8 L254.9,127.8 L254.5,129.3 L253.9,131.0 L253.3,133.3 L252.8,135.0 L252.3,136.5 L251.4,136.8 L250.5,137.3 L249.8,137.0 L248.9,136.5 L248.6,135.9 L248.6,134.8 L248.2,133.8 L248.1,132.9 L248.3,132.0 L248.8,131.8 L248.8,131.4 L249.3,130.4 L249.4,129.6 L249.1,129.1 L248.9,128.3 L248.8,127.1 L249.2,126.4 L249.4,125.6 L249.9,125.6 L250.6,125.3 L251.0,125.1 L251.5,125.1 L252.1,124.4 L253.0,123.6 L253.3,123.0 L253.2,122.5 L253.7,122.6 L254.3,121.8 L254.3,121.0 L254.7,120.5 L255.0,121.0 L255.3,121.5 L255.6,122.3 Z M359.5,122.6 L359.9,123.6 L360.6,123.1 L361.0,123.6 L361.5,124.1 L361.4,124.7 L361.7,125.7 L361.8,126.4 L362.1,126.5 L362.4,127.6 L362.3,128.2 L362.7,129.1 L363.9,129.7 L364.6,130.3 L365.4,130.8 L365.2,131.1 L365.9,131.9 L366.3,133.3 L366.8,133.0 L367.2,133.5 L367.5,133.3 L367.7,134.6 L368.5,135.4 L369.0,135.9 L369.8,136.9 L370.2,137.9 L370.2,138.6 L370.1,139.4 L370.6,140.4 L370.6,141.5 L370.4,142.1 L370.1,143.2 L370.1,143.9 L369.9,144.8 L369.4,145.9 L368.6,146.5 L368.2,147.5 L367.8,148.1 L367.5,149.2 L367.0,149.8 L366.8,150.7 L366.6,151.6 L366.7,152.0 L366.0,152.4 L364.8,152.5 L363.8,153.0 L363.2,153.4 L362.6,154.0 L361.7,153.4 L361.0,153.2 L361.1,152.6 L360.5,152.8 L359.6,153.7 L358.6,153.4 L358.0,153.2 L357.3,153.1 L356.3,152.7 L355.5,151.9 L355.3,151.0 L355.1,150.4 L354.5,149.9 L353.5,149.7 L353.8,149.1 L353.6,148.2 L353.0,149.1 L352.0,149.3 L352.6,148.6 L352.8,147.9 L353.2,147.3 L353.1,146.4 L352.2,147.4 L351.5,147.8 L351.1,148.8 L350.2,148.3 L350.3,147.7 L349.6,146.8 L349.0,146.3 L349.2,146.0 L347.8,145.3 L347.0,145.2 L345.9,144.6 L343.9,144.7 L342.5,145.2 L341.2,145.6 L340.2,145.5 L339.0,146.1 L338.0,146.4 L337.8,147.1 L337.4,147.6 L336.5,147.6 L335.8,147.7 L334.8,147.5 L334.0,147.6 L333.2,147.7 L332.6,148.4 L332.2,148.3 L331.7,148.7 L331.1,149.0 L330.3,149.0 L329.6,149.0 L328.4,148.2 L327.8,148.0 L327.8,147.3 L328.4,147.1 L328.6,146.8 L328.5,146.4 L328.7,145.5 L328.5,144.8 L328.0,143.5 L327.8,142.8 L327.8,142.1 L327.4,141.3 L327.4,140.9 L326.9,140.4 L326.7,139.5 L326.1,138.5 L325.9,137.9 L326.4,138.5 L326.0,137.3 L326.6,137.7 L326.9,138.2 L326.9,137.5 L326.4,136.6 L326.3,136.2 L326.0,135.8 L326.1,135.1 L326.3,134.8 L326.5,134.1 L326.4,133.4 L326.8,132.5 L326.9,133.5 L327.4,132.6 L328.3,132.2 L328.8,131.7 L329.7,131.2 L330.2,131.1 L330.5,131.3 L331.4,130.8 L332.0,130.7 L332.2,130.4 L332.5,130.3 L333.1,130.3 L334.3,130.0 L334.9,129.4 L335.2,128.7 L335.8,128.1 L335.9,127.6 L335.9,126.9 L336.7,125.9 L337.1,127.0 L337.6,126.7 L337.2,126.1 L337.6,125.5 L338.1,125.8 L338.2,124.8 L338.8,124.2 L339.1,123.7 L339.6,123.5 L339.7,123.2 L340.1,123.3 L340.2,123.0 L340.6,122.8 L341.2,122.7 L342.0,123.2 L342.6,124.0 L343.3,124.0 L344.0,124.1 L343.8,123.4 L344.3,122.4 L344.8,122.1 L344.6,121.8 L345.1,121.1 L345.8,120.6 L346.4,120.8 L347.3,120.6 L347.3,119.9 L346.5,119.5 L347.1,119.3 L347.8,119.6 L348.4,120.1 L349.3,120.5 L349.6,120.3 L350.3,120.7 L351.0,120.4 L351.4,120.5 L351.7,120.2 L352.2,120.9 L351.9,121.5 L351.5,122.0 L351.1,122.1 L351.2,122.6 L350.9,123.2 L350.5,123.8 L350.6,124.1 L351.4,124.8 L352.3,125.2 L352.9,125.6 L353.7,126.4 L354.0,126.4 L354.6,126.7 L354.7,127.1 L355.8,127.5 L356.5,127.1 L356.7,126.4 L357.0,125.9 L357.1,125.2 L357.4,124.2 L357.3,123.6 L357.4,123.2 L357.2,122.5 L357.4,121.6 L357.6,121.3 L357.4,120.9 L357.7,120.3 L357.9,119.6 L357.9,119.2 L358.4,118.8 L358.7,119.4 L358.7,120.1 L359.0,120.3 L359.1,120.8 L359.5,121.4 L359.6,122.2 L359.5,122.6 Z M380.1,118.5 L380.4,119.0 L379.7,118.9 L379.2,118.2 L379.9,118.5 L380.1,118.5 Z M334.1,118.2 L333.7,118.3 L332.2,117.4 L333.2,117.1 L333.8,117.5 L334.2,117.9 L334.1,118.2 Z M378.7,117.8 L378.3,117.8 L377.6,117.7 L377.4,117.5 L377.4,117.0 L378.2,117.2 L378.5,117.4 L378.7,117.8 Z M379.6,117.4 L379.5,117.7 L378.7,116.6 L378.4,115.8 L378.8,115.8 L379.2,116.8 L379.6,117.4 Z M338.3,118.1 L337.3,118.4 L337.2,118.2 L337.3,117.8 L337.8,117.0 L338.9,116.6 L339.0,116.3 L339.9,116.0 L340.7,115.9 L341.1,115.8 L341.5,115.9 L341.1,116.3 L339.9,116.8 L339.0,117.2 L338.3,118.1 Z M331.0,115.6 L331.4,115.9 L332.1,115.8 L332.4,116.3 L331.1,116.6 L330.3,116.7 L329.7,116.7 L330.1,116.0 L330.7,116.0 L331.0,115.6 Z M336.6,115.6 L336.4,116.3 L334.7,116.6 L333.2,116.5 L333.2,116.0 L334.1,115.7 L334.8,116.1 L335.6,116.0 L336.6,115.6 Z M377.6,115.9 L377.7,116.1 L376.8,115.6 L376.2,115.1 L375.8,114.7 L376.0,114.6 L376.5,114.9 L377.4,115.5 L377.6,115.9 Z M375.0,114.6 L374.8,114.7 L374.3,114.4 L373.9,113.9 L373.9,113.7 L374.6,114.2 L375.0,114.6 Z M320.7,113.9 L322.8,114.1 L323.1,113.5 L325.1,114.1 L325.5,114.9 L327.2,115.2 L328.6,115.9 L327.3,116.4 L326.1,115.9 L325.1,115.9 L323.9,115.8 L322.9,115.6 L321.6,115.1 L320.8,115.0 L320.3,115.2 L318.3,114.6 L318.1,114.1 L317.1,114.0 L317.8,112.8 L319.2,112.9 L320.1,113.4 L320.5,113.5 L320.7,113.9 Z M349.7,113.2 L349.1,114.1 L349.0,113.1 L349.2,112.7 L349.4,112.3 L349.7,112.6 L349.7,113.2 Z M373.2,114.0 L372.9,114.1 L372.4,113.6 L371.9,112.8 L371.7,111.9 L371.8,111.8 L372.0,112.1 L372.3,112.4 L372.8,113.2 L373.4,113.6 L373.2,114.0 Z M368.9,112.3 L368.3,112.4 L368.1,112.8 L367.5,113.1 L366.9,113.4 L366.3,113.4 L365.4,113.0 L364.8,112.7 L364.9,112.3 L365.9,112.4 L366.5,112.4 L366.7,111.8 L366.8,111.7 L366.9,112.4 L367.6,112.3 L367.9,111.9 L368.5,111.4 L368.4,110.7 L369.0,110.7 L369.3,110.9 L369.2,111.6 L368.9,112.3 Z M341.4,109.8 L341.0,110.2 L340.2,110.0 L340.0,109.5 L341.1,109.4 L341.4,109.8 Z M345.0,109.4 L345.4,110.3 L344.4,109.8 L343.5,109.7 L342.9,109.8 L342.1,109.7 L342.4,109.0 L343.7,109.0 L345.0,109.4 Z M370.2,111.1 L369.8,111.4 L369.6,110.7 L369.3,110.2 L368.8,109.8 L368.2,109.3 L367.4,108.9 L367.7,108.6 L368.3,109.0 L368.7,109.2 L369.2,109.5 L369.6,110.1 L370.0,110.5 L370.2,111.1 Z M349.0,106.9 L349.4,109.0 L350.5,109.7 L351.4,108.4 L352.7,107.6 L353.7,107.6 L354.6,108.1 L355.5,108.5 L356.7,108.7 L358.6,109.6 L360.6,110.3 L361.4,110.9 L362.0,111.6 L362.2,112.3 L364.1,113.1 L364.3,113.7 L363.3,113.9 L363.5,114.7 L364.5,115.5 L365.3,116.8 L365.9,116.8 L365.9,117.3 L366.7,117.5 L366.4,117.8 L367.6,118.3 L367.4,118.7 L366.7,118.7 L366.4,118.4 L365.5,118.3 L364.3,118.1 L363.5,117.3 L362.9,116.6 L362.3,115.5 L360.8,115.0 L359.9,115.3 L359.2,115.8 L359.3,116.7 L358.5,117.1 L357.9,116.9 L356.7,116.8 L355.7,115.8 L354.6,115.6 L354.3,115.9 L352.9,116.0 L353.4,114.9 L354.1,114.6 L353.8,113.3 L353.3,112.2 L351.1,111.2 L350.2,111.1 L348.5,109.9 L348.2,110.5 L347.8,110.6 L347.5,110.2 L347.5,109.6 L346.7,109.0 L347.9,108.6 L348.6,108.6 L348.6,108.3 L346.9,108.3 L346.5,107.5 L345.5,107.3 L345.0,106.7 L346.5,106.4 L347.1,106.0 L348.9,106.5 L349.0,106.9 Z M339.2,103.8 L338.3,105.0 L337.4,105.2 L336.4,105.0 L334.5,105.0 L333.5,105.2 L333.4,106.2 L334.4,107.3 L335.0,106.7 L337.0,106.3 L337.0,106.9 L336.5,106.7 L336.0,107.4 L335.0,107.9 L336.1,109.5 L335.9,109.9 L336.9,111.3 L336.8,112.1 L336.3,112.5 L335.8,112.1 L336.4,111.1 L335.3,111.5 L335.0,111.2 L335.1,110.7 L334.3,110.0 L334.4,108.8 L333.7,109.2 L333.8,110.6 L333.8,112.4 L333.1,112.6 L332.6,112.2 L332.9,111.1 L332.8,109.9 L332.3,109.8 L332.0,109.0 L332.4,108.2 L332.6,107.2 L333.1,105.3 L333.4,104.8 L334.3,103.9 L335.2,104.3 L336.6,104.4 L337.9,104.4 L339.0,103.5 L339.2,103.8 Z M343.0,104.1 L342.9,105.2 L342.4,105.1 L342.2,105.8 L342.6,106.5 L342.3,106.6 L341.9,105.8 L341.6,104.3 L341.8,103.3 L342.1,102.8 L342.2,103.5 L342.9,103.6 L343.0,104.1 Z M317.6,112.8 L316.3,112.8 L315.4,111.8 L314.0,110.8 L313.5,110.0 L312.7,109.0 L312.1,108.1 L311.3,106.3 L310.3,105.3 L310.0,104.2 L309.6,103.3 L308.6,102.5 L308.0,101.4 L307.1,100.7 L306.0,99.3 L305.9,98.7 L306.6,98.8 L308.3,99.0 L309.3,100.2 L310.2,101.1 L310.8,101.6 L311.8,102.9 L313.0,102.9 L313.9,103.8 L314.5,104.8 L315.4,105.4 L314.9,106.4 L315.6,106.8 L316.0,106.9 L316.2,107.7 L316.5,108.4 L317.4,108.5 L317.9,109.3 L317.6,110.9 L317.6,112.8 Z M331.0,103.2 L332.2,104.4 L330.9,104.5 L330.5,105.4 L330.6,106.5 L329.5,107.4 L329.5,108.6 L329.1,110.5 L328.9,110.1 L327.6,110.6 L327.2,109.9 L326.4,109.8 L325.8,109.4 L324.5,109.8 L324.1,109.2 L323.4,109.3 L322.5,109.2 L322.3,107.5 L321.7,107.1 L321.2,106.1 L321.1,105.0 L321.2,103.9 L321.8,103.0 L322.7,103.5 L323.5,103.2 L323.7,102.2 L324.2,101.9 L325.6,101.7 L326.3,100.7 L326.9,99.9 L327.3,99.4 L328.3,98.8 L329.1,97.9 L329.7,96.9 L330.1,96.9 L330.7,97.5 L330.8,98.1 L331.5,98.4 L332.4,98.8 L332.3,99.3 L331.6,99.4 L331.8,100.0 L331.0,100.4 L330.3,101.5 L331.2,102.7 L331.0,103.2 Z M340.4,95.1 L340.5,95.9 L340.6,96.6 L340.2,97.7 L339.8,96.5 L339.3,97.1 L339.6,98.0 L339.3,98.6 L338.0,97.9 L337.7,97.0 L338.0,96.4 L337.3,95.8 L337.0,96.3 L336.5,96.3 L335.7,97.0 L335.5,96.6 L335.9,95.5 L336.6,95.2 L337.2,94.7 L337.6,95.3 L338.4,94.9 L338.6,94.4 L339.4,94.4 L339.3,93.4 L340.2,94.0 L340.3,94.6 L340.4,95.1 Z M290.2,97.8 L289.3,98.1 L288.7,97.1 L288.6,95.3 L289.1,93.3 L289.8,94.0 L290.3,94.9 L290.9,96.2 L290.7,97.5 L290.2,97.8 Z M132.3,93.0 L131.4,93.1 L131.2,93.0 L131.5,92.7 L131.5,92.2 L132.1,92.0 L132.3,92.0 L132.3,93.0 Z M337.8,92.8 L337.4,93.2 L337.0,93.9 L336.7,94.3 L336.0,93.5 L336.2,93.1 L336.5,92.8 L336.6,92.0 L337.2,91.9 L337.0,92.8 L337.9,91.6 L337.8,92.8 Z M331.7,94.0 L330.2,95.1 L330.7,94.3 L331.5,93.5 L332.2,92.6 L332.8,91.4 L333.0,92.4 L332.3,93.1 L331.7,94.0 Z M335.4,90.8 L336.1,91.1 L336.8,91.1 L336.8,91.7 L336.3,92.2 L335.6,92.6 L335.5,92.0 L335.6,91.3 L335.4,90.8 Z M339.4,90.4 L339.8,91.8 L338.9,91.5 L338.9,91.9 L339.2,92.7 L338.7,92.9 L338.6,92.1 L338.3,92.0 L338.1,91.2 L338.8,91.3 L338.8,90.9 L338.1,89.9 L339.1,90.0 L339.4,90.4 Z M335.0,89.3 L334.7,90.4 L334.3,89.7 L333.7,88.8 L334.6,88.8 L335.0,89.3 Z M334.8,82.5 L335.5,82.9 L335.8,82.6 L335.9,82.9 L335.7,83.4 L336.1,84.3 L335.8,85.3 L335.2,85.7 L335.0,86.7 L335.3,87.7 L335.8,87.9 L336.3,87.7 L337.7,88.4 L337.6,89.1 L338.0,89.4 L337.9,90.0 L337.0,89.3 L336.6,88.7 L336.3,89.1 L335.6,88.4 L334.6,88.6 L334.0,88.3 L334.1,87.8 L334.4,87.5 L334.1,87.2 L334.0,87.6 L333.4,86.9 L333.2,86.4 L333.2,85.2 L333.7,85.6 L333.8,83.7 L334.1,82.5 L334.8,82.5 Z M127.1,82.9 L126.8,83.2 L126.0,83.2 L125.4,83.2 L125.3,82.7 L125.4,82.5 L126.4,82.5 L126.9,82.6 L127.1,82.9 Z M114.6,83.3 L114.2,83.5 L113.6,83.3 L113.0,82.9 L113.1,82.6 L113.6,82.5 L113.8,82.6 L114.6,82.7 L115.1,83.0 L115.3,83.3 L114.6,83.3 Z M119.4,80.8 L120.3,81.0 L120.5,80.8 L121.3,80.8 L122.0,81.2 L122.3,81.1 L122.5,81.6 L123.1,81.5 L123.1,81.9 L123.5,82.0 L124.1,82.4 L123.7,82.9 L123.2,82.6 L122.6,82.7 L122.3,82.6 L122.1,82.9 L121.6,82.9 L121.5,82.6 L121.1,82.8 L120.7,83.7 L120.4,83.5 L120.3,83.1 L119.6,82.9 L119.1,83.0 L118.4,82.9 L117.9,83.1 L117.3,82.7 L117.4,82.3 L118.4,82.5 L119.2,82.6 L119.6,82.3 L119.1,81.8 L119.1,81.3 L118.4,81.1 L118.7,80.8 L119.4,80.8 Z M322.6,82.3 L321.6,82.9 L320.7,82.5 L320.7,81.5 L321.2,80.9 L322.5,80.6 L323.1,80.6 L323.3,81.1 L322.9,81.6 L322.6,82.3 Z M27.2,81.8 L27.0,82.0 L26.7,81.9 L26.8,81.5 L26.6,81.1 L26.6,80.9 L26.8,80.7 L26.8,80.5 L26.8,80.4 L26.9,80.4 L27.3,80.6 L27.5,80.7 L27.7,80.9 L28.0,81.3 L28.0,81.4 L27.5,81.6 L27.2,81.8 Z M26.6,79.9 L26.2,80.0 L26.0,79.7 L25.9,79.6 L25.9,79.5 L26.0,79.4 L26.4,79.6 L26.7,79.7 L26.6,79.9 Z M25.8,79.2 L25.8,79.4 L25.2,79.3 L25.3,79.2 L25.8,79.2 Z M24.8,79.0 L24.8,79.1 L24.7,79.1 L24.3,79.1 L24.2,78.8 L24.1,78.7 L24.4,78.6 L24.5,78.6 L24.8,79.0 Z M22.9,78.2 L22.8,78.4 L22.4,78.1 L22.5,78.0 L22.7,77.9 L22.9,77.9 L22.9,78.2 Z M111.5,77.3 L111.9,77.7 L112.9,77.6 L113.3,77.9 L114.3,78.6 L115.0,79.2 L115.3,79.2 L116.0,79.4 L115.9,79.8 L116.7,79.8 L117.6,80.3 L117.4,80.6 L116.7,80.8 L116.0,80.8 L115.2,80.7 L113.6,80.9 L114.3,80.2 L113.9,79.9 L113.2,79.8 L112.8,79.4 L112.5,78.7 L111.9,78.8 L110.9,78.4 L110.5,78.2 L109.1,78.0 L108.7,77.7 L109.1,77.4 L108.0,77.4 L107.2,78.0 L106.8,78.0 L106.6,78.3 L106.1,78.5 L105.6,78.3 L106.2,78.0 L106.4,77.5 L106.9,77.2 L107.5,77.0 L108.3,76.9 L108.6,76.7 L109.6,76.8 L110.4,76.8 L111.5,77.3 Z M113.9,76.0 L113.6,76.1 L113.3,75.4 L112.9,75.0 L113.1,74.2 L113.5,74.3 L113.8,75.3 L113.9,76.0 Z M334.6,77.2 L334.2,78.2 L333.6,77.2 L333.5,76.3 L334.1,75.1 L335.0,74.1 L335.5,74.5 L335.3,75.2 L334.6,77.2 Z M113.5,72.5 L112.3,72.7 L112.2,72.3 L112.8,72.2 L113.5,72.2 L113.5,72.5 Z M114.4,72.5 L114.3,73.4 L114.0,73.2 L114.1,72.6 L113.6,72.1 L113.6,72.0 L114.4,72.5 Z M349.6,63.1 L349.7,63.6 L349.1,64.3 L348.7,63.9 L348.1,64.2 L347.8,64.9 L347.1,64.6 L347.1,64.0 L347.7,63.2 L348.3,63.4 L348.8,62.9 L349.6,63.1 Z M238.4,61.2 L237.7,61.8 L237.7,62.0 L237.8,62.1 L236.6,62.6 L236.1,62.4 L235.8,61.9 L236.4,61.9 L236.4,61.9 L236.6,61.6 L237.4,61.6 L238.4,61.2 Z M226.3,61.2 L226.9,61.6 L227.8,61.5 L228.6,61.6 L228.6,61.8 L229.2,61.7 L229.1,62.1 L227.5,62.2 L227.5,62.0 L226.1,61.7 L226.3,61.2 Z M217.2,58.1 L216.8,59.0 L217.0,59.4 L216.8,60.1 L215.9,59.6 L215.4,59.5 L213.8,58.8 L214.0,58.2 L215.3,58.3 L216.4,58.2 L217.2,58.1 Z M210.2,54.4 L210.9,55.2 L210.7,56.9 L210.2,56.8 L209.8,57.2 L209.4,56.9 L209.3,55.4 L209.1,54.7 L209.7,54.7 L210.2,54.4 Z M356.6,59.4 L356.2,60.4 L356.4,61.0 L355.8,61.9 L354.4,62.5 L352.5,62.6 L350.9,64.0 L350.1,63.5 L350.1,62.6 L348.2,62.8 L346.8,63.4 L345.5,63.5 L346.7,64.4 L345.9,66.5 L345.2,67.0 L344.7,66.5 L344.9,65.4 L344.2,65.0 L343.8,64.2 L344.8,63.8 L345.4,63.0 L346.5,62.4 L347.4,61.5 L349.6,61.2 L350.8,61.4 L351.9,59.2 L352.7,59.8 L354.3,58.6 L354.9,58.1 L355.6,56.6 L355.4,55.2 L355.9,54.4 L357.1,54.2 L357.7,55.9 L357.6,56.9 L356.6,58.1 L356.6,59.4 Z M210.6,53.2 L210.3,54.1 L209.8,53.9 L209.5,53.1 L209.7,52.6 L210.4,52.1 L210.6,53.2 Z M359.9,50.7 L360.7,50.9 L361.5,50.4 L361.7,51.8 L360.1,52.2 L359.1,53.4 L357.3,52.5 L356.7,53.9 L355.5,53.9 L355.4,52.7 L355.9,51.7 L357.1,51.7 L357.4,49.9 L357.7,49.0 L359.0,50.3 L359.9,50.7 Z M129.3,47.7 L130.1,47.9 L131.1,47.9 L130.6,48.4 L130.1,48.5 L128.7,47.9 L128.5,47.5 L128.9,47.1 L129.3,47.7 Z M131.3,44.6 L130.8,44.6 L129.3,44.2 L128.3,43.6 L128.7,43.5 L130.2,43.8 L131.3,44.3 L131.3,44.6 Z M62.8,45.3 L62.2,45.5 L60.4,44.9 L60.1,44.5 L59.1,44.0 L58.9,43.7 L57.7,43.5 L57.3,42.8 L57.4,42.5 L58.5,42.8 L59.2,43.0 L60.3,43.1 L60.6,43.5 L61.2,44.1 L62.3,44.6 L62.8,45.3 Z M137.6,42.6 L136.9,43.7 L137.6,43.3 L138.4,43.5 L138.0,44.0 L139.0,44.3 L139.5,44.0 L140.6,44.4 L140.2,45.3 L141.0,45.1 L141.2,45.7 L141.5,46.5 L141.0,47.6 L140.5,47.6 L139.8,47.4 L140.0,46.4 L139.7,46.2 L138.4,47.3 L137.8,47.3 L138.6,46.7 L137.5,46.4 L136.3,46.5 L134.1,46.4 L134.0,46.1 L134.7,45.6 L134.2,45.3 L135.1,44.5 L136.3,42.6 L137.0,41.9 L137.9,41.4 L138.4,41.5 L138.2,41.8 L137.6,42.6 Z M52.5,38.4 L52.5,38.4 L52.5,38.4 L52.5,38.4 L53.6,38.3 L53.3,39.7 L54.2,40.7 L53.8,40.7 L53.1,40.2 L52.7,39.6 L52.2,39.2 L52.0,38.7 L52.0,38.3 L52.5,38.4 Z M359.6,42.5 L360.7,44.7 L359.1,44.3 L358.4,46.1 L359.5,47.4 L359.5,48.2 L358.6,47.5 L357.9,48.5 L357.7,47.4 L357.8,46.2 L357.7,44.9 L357.9,43.9 L358.0,42.3 L357.3,41.0 L357.4,39.3 L358.5,38.8 L358.0,38.2 L358.5,38.0 L358.8,38.8 L359.2,40.0 L359.2,41.3 L359.6,42.5 Z M192.5,40.6 L190.5,41.4 L188.9,41.2 L189.8,39.9 L189.2,38.6 L190.7,37.7 L191.6,37.1 L192.5,37.0 L193.7,37.8 L193.1,38.6 L193.3,39.5 L192.5,40.6 Z M214.1,36.5 L213.4,37.5 L212.3,36.8 L212.1,36.3 L213.7,35.9 L214.1,36.5 Z M30.0,34.6 L28.9,35.1 L28.3,34.8 L28.1,34.2 L29.2,33.7 L29.7,33.6 L30.5,33.6 L31.0,34.0 L30.0,34.6 Z M196.7,32.7 L195.5,34.1 L196.6,33.9 L197.8,33.9 L197.5,34.9 L196.5,36.0 L197.7,36.1 L198.8,37.7 L199.5,37.9 L200.2,39.3 L200.5,39.8 L201.9,40.0 L201.7,40.8 L201.2,41.2 L201.6,41.8 L200.6,42.5 L199.1,42.5 L197.2,42.8 L196.7,42.6 L196.0,43.2 L195.0,43.0 L194.2,43.5 L193.6,43.3 L195.2,41.9 L196.2,41.7 L194.5,41.5 L194.1,41.0 L195.3,40.6 L194.7,39.9 L194.9,39.1 L196.6,39.2 L196.7,38.5 L196.0,37.7 L194.6,37.5 L194.4,37.2 L194.8,36.6 L194.4,36.3 L193.8,36.9 L193.7,35.7 L193.2,35.0 L193.6,33.7 L194.4,32.7 L195.3,32.8 L196.7,32.7 Z M16.0,31.1 L15.3,31.3 L14.6,31.1 L13.9,30.8 L15.0,30.6 L15.9,30.7 L16.0,31.1 Z M111.9,28.4 L111.5,29.0 L111.0,28.9 L110.7,28.5 L110.8,28.4 L111.2,28.1 L111.6,28.1 L111.9,28.4 Z M109.0,27.7 L107.7,28.4 L106.9,28.3 L106.7,28.0 L107.5,27.4 L109.0,27.4 L109.0,27.7 Z M9.2,26.3 L9.9,26.6 L10.6,26.4 L11.5,26.8 L12.6,26.9 L12.5,27.1 L11.6,27.3 L10.8,27.1 L10.4,26.8 L9.4,26.9 L9.1,26.8 L9.2,26.3 Z M105.4,24.0 L105.6,24.6 L106.2,24.4 L106.8,24.7 L108.0,25.1 L109.3,25.5 L109.4,26.1 L110.2,26.0 L111.0,26.4 L110.0,26.8 L108.3,26.5 L107.7,25.9 L106.6,26.6 L105.0,27.2 L104.6,26.5 L103.1,26.6 L104.1,26.0 L104.2,25.0 L104.6,23.9 L105.4,24.0 Z M183.9,23.0 L183.6,23.8 L184.9,24.7 L183.4,25.6 L180.2,26.5 L179.3,26.7 L177.8,26.5 L174.7,26.1 L175.8,25.6 L173.4,25.0 L175.4,24.7 L175.3,24.4 L173.0,24.1 L173.7,23.3 L175.4,23.1 L177.1,23.9 L178.8,23.2 L180.2,23.6 L182.0,22.9 L183.9,23.0 Z M115.7,22.2 L114.5,22.2 L114.2,21.6 L114.7,20.9 L115.7,20.7 L116.5,21.1 L116.6,21.6 L116.4,21.8 L115.7,22.2 Z M5.5,22.9 L6.3,23.2 L6.0,22.3 L9.0,22.5 L11.2,23.6 L10.1,24.2 L8.3,24.3 L8.3,25.5 L7.8,25.8 L6.8,25.7 L5.9,25.3 L4.5,24.9 L4.2,24.4 L3.1,24.2 L1.8,24.3 L1.2,23.9 L1.5,23.4 L0.1,23.7 L0.6,24.3 L0.0,24.9 L0.0,19.9 L2.7,20.9 L5.6,22.1 L5.5,22.9 Z M93.7,19.7 L93.0,20.2 L91.5,19.8 L90.6,19.9 L89.1,19.4 L90.1,19.0 L90.9,18.4 L92.0,18.8 L92.7,19.0 L93.0,19.3 L93.7,19.7 Z M400.0,17.6 L398.8,17.7 L398.6,17.3 L400.0,16.7 L400.0,17.6 Z M1.5,17.5 L0.0,17.6 L0.0,16.7 L0.1,16.7 L1.1,16.7 L2.7,17.0 L2.6,17.2 L1.5,17.5 Z M99.4,19.2 L99.4,20.5 L100.9,19.5 L102.2,20.3 L101.9,21.3 L102.9,22.1 L104.1,21.2 L104.9,20.1 L105.0,18.8 L106.6,18.9 L108.2,19.0 L109.7,19.7 L109.8,20.3 L108.9,20.9 L109.7,21.6 L109.6,22.2 L107.4,23.1 L105.8,23.3 L104.7,22.9 L104.4,23.5 L103.3,24.6 L103.0,25.1 L101.7,25.9 L100.1,26.0 L99.2,26.6 L99.1,27.4 L97.9,27.5 L96.5,28.5 L95.3,29.9 L94.9,30.9 L94.8,32.3 L96.4,32.5 L96.9,33.7 L97.4,34.7 L99.0,34.4 L101.1,34.9 L102.2,35.4 L103.0,36.0 L104.4,36.3 L105.5,36.9 L107.4,36.9 L108.6,37.1 L108.4,38.1 L108.7,39.4 L109.6,40.8 L111.2,41.9 L112.1,41.5 L112.7,40.3 L112.1,38.3 L111.3,37.7 L113.1,37.1 L114.3,36.2 L115.0,35.3 L114.9,34.5 L114.1,33.5 L112.8,32.5 L114.1,31.2 L113.6,30.1 L113.2,28.2 L114.0,27.9 L115.9,28.2 L117.0,28.3 L118.0,28.0 L119.0,28.4 L120.4,29.1 L120.7,29.6 L122.7,29.7 L122.6,30.8 L123.0,32.3 L124.0,32.5 L124.8,33.3 L126.4,32.6 L127.5,31.2 L128.2,30.6 L129.1,31.7 L130.6,33.3 L131.8,34.8 L131.3,35.6 L132.8,36.3 L133.8,37.0 L135.6,37.3 L136.3,37.7 L136.7,38.8 L137.6,38.9 L138.0,39.4 L138.1,40.8 L137.3,41.3 L136.5,41.7 L134.7,42.1 L133.3,43.1 L131.4,43.3 L129.0,43.1 L127.4,43.1 L126.2,43.2 L125.3,44.1 L123.9,44.6 L122.3,46.2 L121.0,47.4 L121.9,47.2 L123.7,45.6 L126.1,44.5 L127.7,44.4 L128.7,45.0 L127.6,45.8 L128.0,47.2 L128.4,48.1 L129.8,48.7 L131.6,48.6 L132.8,47.2 L132.8,48.1 L133.6,48.5 L132.2,49.3 L129.7,50.1 L128.6,50.6 L127.4,51.5 L126.5,51.4 L126.5,50.3 L128.4,49.3 L126.6,49.3 L125.4,49.5 L125.6,49.9 L124.4,50.5 L123.3,50.9 L122.1,51.3 L121.5,52.1 L121.3,52.3 L121.3,53.0 L121.7,53.6 L122.1,53.7 L122.0,53.2 L122.4,53.5 L122.3,53.8 L121.5,54.0 L121.0,54.0 L120.2,54.2 L119.7,54.3 L119.0,54.3 L118.1,54.7 L119.7,54.5 L120.1,54.7 L118.5,55.1 L117.8,55.1 L117.8,54.9 L117.5,55.3 L117.8,55.3 L117.6,56.2 L116.8,57.2 L116.7,56.9 L116.4,56.8 L116.1,56.5 L116.3,57.2 L116.6,57.4 L116.6,57.8 L116.2,58.3 L115.6,59.3 L115.5,59.3 L115.9,58.4 L115.3,57.9 L115.2,56.9 L115.0,57.5 L115.2,58.2 L114.5,58.1 L115.2,58.4 L115.3,59.6 L115.6,59.7 L115.7,60.1 L115.9,61.4 L115.2,62.3 L114.0,62.7 L113.3,63.4 L112.7,63.5 L112.2,63.9 L112.0,64.4 L110.8,65.2 L110.2,65.8 L109.6,66.5 L109.5,67.4 L109.7,68.2 L110.0,69.3 L110.5,70.2 L110.5,70.7 L111.0,72.1 L111.0,73.0 L111.0,73.5 L110.7,74.2 L110.4,74.4 L109.8,74.2 L109.6,73.7 L109.2,73.4 L108.6,72.3 L108.1,71.4 L107.9,70.9 L108.2,70.1 L107.9,69.4 L107.0,68.4 L106.6,68.2 L105.4,68.7 L105.2,68.7 L104.7,68.1 L104.0,67.8 L102.7,67.9 L101.8,67.8 L100.9,67.9 L100.4,68.1 L100.7,68.4 L100.6,68.9 L100.9,69.2 L100.7,69.3 L100.2,69.1 L99.8,69.4 L99.0,69.3 L98.2,68.7 L97.2,68.8 L96.4,68.5 L95.7,68.6 L94.8,68.9 L93.8,69.8 L92.7,70.4 L92.1,71.0 L91.8,71.5 L91.8,72.4 L91.9,73.0 L92.1,73.4 L92.1,73.4 L92.1,73.4 L91.6,74.5 L91.4,75.4 L91.4,77.0 L91.3,77.7 L91.4,78.3 L91.8,78.9 L92.0,79.9 L92.7,80.8 L93.0,81.5 L93.4,82.1 L94.6,82.5 L95.1,83.0 L96.1,82.6 L96.9,82.5 L97.7,82.3 L98.4,82.1 L99.1,81.6 L99.4,80.9 L99.5,79.8 L99.7,79.4 L100.4,79.1 L101.6,78.8 L102.6,78.9 L103.3,78.8 L103.5,79.0 L103.5,79.6 L102.9,80.4 L102.6,81.1 L102.8,81.3 L102.7,81.9 L102.4,82.8 L102.1,82.5 L101.9,82.6 L101.9,82.7 L102.1,82.7 L102.1,83.1 L101.9,83.6 L102.0,83.8 L101.9,84.3 L102.0,84.4 L101.8,85.0 L101.6,85.3 L101.4,85.4 L101.2,85.8 L101.6,86.0 L101.6,85.8 L102.0,86.0 L102.1,86.0 L102.3,85.8 L102.6,85.8 L102.8,85.9 L102.9,85.8 L103.4,86.0 L104.0,85.9 L104.3,85.8 L104.4,85.6 L104.8,85.7 L105.1,85.8 L105.4,85.8 L105.6,85.7 L106.1,85.8 L106.3,85.9 L106.6,86.1 L106.9,86.4 L107.3,86.6 L107.6,86.9 L107.5,87.0 L107.5,87.3 L107.6,87.8 L107.3,88.2 L107.2,88.7 L107.2,89.2 L107.2,89.5 L107.3,90.1 L107.1,90.2 L107.0,90.8 L107.1,91.1 L106.8,91.4 L106.9,91.7 L107.0,91.9 L107.3,92.6 L107.8,93.1 L108.3,93.6 L108.7,94.1 L108.7,94.4 L109.1,94.4 L109.2,94.3 L109.5,94.6 L110.1,94.5 L110.5,94.2 L111.2,94.0 L111.6,93.6 L112.2,93.7 L112.2,93.8 L112.8,93.8 L113.3,94.0 L113.6,94.4 L114.1,94.8 L114.6,94.8 L115.5,93.9 L115.9,93.8 L115.9,93.4 L116.1,92.3 L116.8,91.8 L117.5,91.7 L117.6,91.5 L118.4,91.6 L119.3,91.0 L119.7,90.7 L120.3,90.1 L120.7,90.2 L121.0,90.5 L120.7,90.9 L120.7,91.2 L120.1,91.3 L120.4,91.9 L120.4,92.5 L119.9,93.3 L120.3,94.3 L120.8,94.2 L121.1,93.3 L120.7,92.8 L120.7,91.9 L122.0,91.4 L121.9,90.8 L122.3,90.4 L122.7,91.3 L123.5,91.3 L124.2,92.0 L124.2,92.4 L125.2,92.4 L126.4,92.3 L127.0,92.9 L127.9,93.0 L128.5,92.6 L128.5,92.3 L129.9,92.2 L131.2,92.2 L130.3,92.6 L130.7,93.2 L131.6,93.3 L132.4,93.9 L132.6,94.9 L133.2,94.8 L133.6,95.1 L134.3,95.6 L135.0,96.4 L135.1,97.0 L135.5,97.1 L136.1,97.7 L136.5,98.1 L137.8,98.4 L138.0,98.1 L138.9,98.0 L140.0,98.4 L140.4,98.5 L141.2,98.8 L142.4,99.8 L142.6,100.4 L143.0,100.3 L143.3,101.0 L143.9,103.2 L144.5,103.4 L144.5,104.2 L143.7,105.2 L144.0,105.6 L146.0,105.8 L146.0,107.1 L146.9,106.2 L148.3,106.7 L150.1,107.4 L150.6,108.2 L150.5,108.9 L151.8,108.5 L153.9,109.1 L155.6,109.1 L157.2,110.1 L158.6,111.5 L159.5,111.9 L160.4,111.9 L160.8,112.3 L161.2,113.9 L161.4,114.6 L161.0,116.7 L160.4,117.5 L158.8,119.2 L158.1,120.6 L157.3,121.7 L157.0,121.7 L156.7,122.6 L156.8,125.0 L156.5,126.9 L156.4,127.7 L156.0,128.2 L155.8,129.8 L154.7,131.5 L154.5,132.7 L153.6,133.3 L153.3,134.0 L152.1,134.0 L150.4,134.5 L149.6,135.1 L148.4,135.4 L147.1,136.4 L146.1,137.6 L146.0,138.6 L146.1,139.3 L145.9,140.5 L145.7,141.1 L144.9,141.8 L143.7,144.0 L142.7,145.0 L141.9,145.5 L141.4,146.7 L140.7,147.4 L140.2,148.2 L139.0,148.9 L138.1,148.7 L137.5,148.8 L136.5,148.3 L135.8,148.3 L135.1,147.6 L135.0,148.3 L136.4,149.3 L136.3,150.2 L137.0,150.7 L136.9,151.3 L135.8,152.9 L134.2,153.6 L132.0,153.8 L130.7,153.7 L131.0,154.5 L130.7,155.4 L130.9,156.0 L130.3,156.4 L129.1,156.6 L128.1,156.2 L127.6,156.5 L127.8,157.7 L128.6,158.1 L129.2,157.7 L129.5,158.4 L128.5,158.7 L127.6,159.5 L127.4,160.8 L127.1,161.4 L126.1,161.4 L125.2,162.1 L124.9,163.0 L126.0,163.9 L127.1,164.2 L126.7,165.3 L125.4,166.0 L124.6,167.4 L123.6,167.9 L123.2,168.5 L123.5,169.8 L124.3,170.5 L123.8,170.4 L122.8,170.4 L122.3,170.7 L121.3,171.2 L121.1,172.3 L120.6,172.4 L119.4,172.0 L118.1,171.1 L116.7,170.4 L116.4,169.6 L116.7,168.9 L116.1,168.1 L116.0,165.9 L116.5,164.7 L117.6,163.8 L116.0,163.4 L117.0,162.3 L117.4,160.3 L118.6,160.7 L119.2,158.1 L118.5,157.8 L118.1,159.4 L117.4,159.2 L117.8,157.4 L118.1,155.1 L118.6,154.3 L118.3,153.0 L118.2,151.6 L118.7,151.6 L119.4,149.6 L120.2,147.6 L120.6,145.8 L120.4,143.9 L120.7,142.9 L120.6,141.3 L121.2,139.8 L121.4,137.4 L121.8,134.8 L122.1,132.1 L122.0,130.0 L121.8,128.3 L120.7,127.6 L120.6,127.1 L118.4,125.8 L116.4,124.5 L115.5,123.7 L115.1,122.7 L115.3,122.3 L114.3,120.7 L113.2,118.4 L112.2,115.9 L111.7,115.4 L111.4,114.4 L110.5,113.6 L109.7,113.1 L110.1,112.6 L109.5,111.4 L109.9,110.5 L110.8,109.7 L111.4,108.8 L111.1,108.3 L110.7,108.9 L110.0,108.3 L110.3,108.0 L110.1,106.8 L110.5,106.6 L110.7,105.9 L111.1,105.1 L111.0,104.6 L111.6,104.3 L112.4,103.8 L112.2,103.4 L112.6,103.3 L112.6,102.7 L112.9,102.3 L113.4,102.2 L113.9,101.4 L114.3,100.7 L113.9,100.4 L114.1,99.7 L113.9,98.6 L114.1,98.3 L113.9,97.2 L113.5,96.5 L113.1,96.2 L112.9,95.5 L113.1,95.2 L112.8,95.1 L112.6,94.7 L112.1,94.3 L111.6,94.4 L111.4,94.9 L110.9,95.2 L110.7,95.2 L110.6,95.5 L111.1,96.1 L110.8,96.3 L110.6,96.5 L110.1,96.6 L109.9,95.8 L109.8,96.0 L109.4,96.0 L109.2,95.5 L108.7,95.4 L108.5,95.2 L108.0,95.2 L107.9,95.5 L107.8,95.3 L107.2,95.0 L107.0,94.8 L107.1,94.6 L107.1,94.3 L106.8,94.0 L106.3,93.7 L105.9,93.6 L105.9,93.2 L105.6,93.0 L105.7,93.4 L105.4,93.7 L105.2,93.3 L104.8,93.2 L104.7,92.9 L104.7,92.6 L104.8,92.2 L104.5,92.0 L104.8,91.8 L104.4,91.4 L103.9,90.9 L103.6,90.4 L103.1,90.1 L102.6,89.5 L102.7,89.3 L102.9,89.5 L103.0,89.4 L102.8,89.0 L102.5,88.9 L102.3,89.2 L101.7,89.2 L101.3,89.1 L100.8,88.8 L100.2,88.7 L99.9,88.5 L99.3,88.2 L98.6,88.2 L98.1,88.0 L97.5,87.5 L96.3,86.1 L95.7,85.7 L94.8,85.4 L94.2,85.5 L93.3,86.0 L92.7,86.1 L91.9,85.8 L91.1,85.5 L90.1,85.0 L89.2,84.8 L88.0,84.2 L87.0,83.6 L86.8,83.3 L86.1,83.2 L85.0,82.8 L84.5,82.2 L83.3,81.5 L82.8,80.8 L82.5,80.2 L82.9,80.0 L82.8,79.7 L83.0,79.4 L83.0,78.9 L82.7,78.4 L82.6,77.9 L82.2,77.2 L81.2,76.0 L80.1,75.0 L79.6,74.3 L78.6,73.8 L78.4,73.5 L78.6,72.7 L78.0,72.4 L77.3,71.8 L77.1,70.9 L76.5,70.8 L75.8,70.2 L75.3,69.6 L75.3,69.2 L74.7,68.2 L74.3,67.3 L74.3,66.8 L73.5,66.3 L73.1,66.4 L72.5,66.0 L72.3,66.5 L72.5,67.1 L72.6,68.1 L73.0,68.6 L73.8,69.4 L74.0,69.7 L74.1,69.8 L74.3,70.2 L74.5,70.2 L74.7,71.0 L75.0,71.3 L75.3,71.8 L76.0,72.4 L76.4,73.6 L76.7,74.1 L77.0,74.7 L77.0,75.4 L77.6,75.4 L78.0,76.0 L78.4,76.5 L78.4,76.7 L77.9,77.2 L77.7,77.2 L77.5,76.4 L76.7,75.7 L75.9,75.1 L75.4,74.8 L75.4,73.9 L75.2,73.2 L74.7,72.8 L73.9,72.3 L73.8,72.4 L73.5,72.1 L72.8,71.8 L72.2,71.1 L72.2,71.0 L72.7,71.1 L73.1,70.6 L73.2,70.1 L72.3,69.2 L71.6,68.8 L71.2,68.1 L70.8,67.2 L70.3,66.2 L69.9,65.1 L69.7,64.5 L69.0,63.8 L68.4,63.6 L68.3,63.3 L67.7,63.2 L67.3,62.9 L66.3,62.8 L66.0,62.6 L65.8,61.9 L64.8,60.6 L63.8,58.9 L63.9,58.6 L63.4,58.2 L62.5,57.2 L62.4,56.2 L61.8,55.5 L62.0,54.4 L62.0,53.4 L61.6,52.4 L62.1,51.3 L62.3,49.0 L62.1,47.3 L61.8,46.3 L61.5,45.7 L61.6,45.5 L63.2,45.9 L63.8,47.1 L64.1,46.7 L63.9,45.7 L63.5,44.7 L63.4,44.7 L61.2,43.5 L60.4,42.9 L58.4,42.4 L57.8,41.3 L57.9,40.6 L56.5,40.0 L56.3,39.0 L55.0,38.1 L55.0,37.5 L54.3,37.0 L53.4,36.6 L53.1,35.5 L51.6,34.5 L51.0,33.4 L50.0,33.3 L48.2,33.3 L46.9,32.9 L44.6,31.6 L43.5,31.4 L41.6,30.9 L40.0,31.0 L37.9,30.5 L36.5,29.9 L35.3,30.2 L35.5,31.1 L34.9,31.1 L33.6,31.4 L32.7,31.8 L31.4,32.1 L31.3,31.4 L31.8,30.1 L32.9,29.8 L32.6,29.4 L31.2,30.1 L30.5,31.0 L28.9,31.8 L29.7,32.4 L28.6,33.3 L27.4,33.9 L26.3,34.2 L26.0,34.8 L24.3,35.4 L24.0,36.0 L22.7,36.5 L21.9,36.4 L20.9,36.8 L19.7,37.2 L18.8,37.6 L16.9,38.0 L16.7,37.8 L17.9,37.2 L19.0,36.8 L20.2,36.1 L21.6,36.0 L22.1,35.5 L23.7,34.7 L23.9,34.5 L24.8,34.1 L24.9,33.1 L25.5,32.4 L24.2,32.8 L23.9,32.5 L23.3,33.0 L22.5,32.4 L22.2,32.8 L21.8,32.2 L20.7,32.7 L20.0,32.7 L19.9,31.9 L20.1,31.5 L19.4,31.0 L18.0,31.3 L17.0,30.7 L16.3,30.4 L16.3,29.7 L15.4,29.2 L15.9,28.5 L16.8,27.8 L17.2,27.1 L18.1,27.0 L18.8,27.2 L19.7,26.6 L20.5,26.7 L21.4,26.4 L21.2,25.8 L20.5,25.6 L21.4,25.1 L20.7,25.1 L19.5,25.4 L19.2,25.6 L18.3,25.4 L16.7,25.5 L15.1,25.2 L14.6,24.7 L13.2,24.0 L14.8,23.5 L17.3,22.9 L18.2,22.9 L18.0,23.5 L20.4,23.4 L19.5,22.7 L18.1,22.2 L17.3,21.6 L16.2,21.1 L14.7,20.7 L15.3,20.0 L17.3,20.0 L18.7,19.4 L19.0,18.8 L20.1,18.2 L21.2,18.1 L23.3,17.5 L24.3,17.6 L26.0,16.9 L27.7,17.2 L28.5,17.8 L29.0,17.5 L30.9,17.6 L30.8,17.9 L32.5,18.1 L33.6,18.0 L36.0,18.4 L38.1,18.5 L39.0,18.6 L40.5,18.4 L42.1,18.8 L43.3,19.0 L45.4,19.3 L47.2,19.9 L48.3,20.0 L49.3,19.5 L50.7,19.1 L52.3,19.2 L54.0,18.7 L55.8,18.4 L56.5,18.9 L57.4,18.6 L57.6,18.0 L58.4,18.2 L60.3,19.3 L61.8,18.4 L61.9,19.4 L63.3,19.2 L63.7,18.8 L65.0,18.9 L66.7,19.4 L69.3,19.8 L70.9,20.1 L71.9,20.0 L73.4,20.6 L71.9,21.2 L73.9,21.5 L76.9,21.3 L77.8,21.1 L79.0,21.9 L80.2,21.2 L79.1,20.7 L79.8,20.3 L81.2,20.2 L82.1,20.1 L83.0,20.4 L84.1,21.1 L85.3,21.0 L87.3,21.5 L89.0,21.3 L90.6,21.4 L90.5,20.6 L91.5,20.4 L93.2,20.8 L93.2,22.0 L93.9,21.0 L94.8,21.0 L95.3,19.8 L94.1,19.0 L92.8,18.5 L92.9,17.1 L94.2,16.2 L95.7,16.4 L96.8,17.0 L98.3,18.4 L97.3,19.0 L99.4,19.2 Z M73.1,14.7 L72.6,15.3 L75.1,15.0 L76.6,15.6 L77.9,14.9 L78.9,15.4 L79.8,16.6 L80.3,16.1 L79.6,14.8 L80.5,14.6 L81.6,14.8 L82.9,15.3 L83.6,16.5 L83.9,17.4 L85.8,18.0 L87.8,18.6 L87.7,19.1 L85.9,19.2 L86.6,19.7 L86.2,20.2 L84.2,20.0 L82.3,19.6 L81.0,19.7 L78.9,20.1 L75.6,20.4 L74.1,20.4 L73.5,19.9 L72.0,19.5 L71.0,19.7 L69.6,18.7 L70.4,18.5 L72.1,18.3 L73.6,18.4 L75.1,18.2 L72.9,17.9 L70.6,18.0 L69.0,17.9 L68.4,17.5 L71.0,17.0 L69.3,17.0 L67.3,16.7 L68.3,15.8 L69.0,15.3 L72.0,14.5 L73.1,14.7 Z M83.9,14.4 L82.9,15.2 L81.2,14.3 L81.6,14.2 L83.0,14.1 L83.9,14.4 Z M115.2,14.8 L115.3,15.1 L114.1,15.1 L112.9,15.0 L111.7,15.2 L111.4,15.1 L110.1,14.5 L110.2,14.0 L110.7,14.0 L113.3,14.1 L115.2,14.8 Z M103.8,14.7 L104.7,15.5 L105.7,14.5 L108.5,14.0 L110.4,15.2 L110.3,16.1 L112.5,15.7 L113.5,15.2 L116.0,15.8 L117.5,16.4 L117.7,17.0 L119.7,16.7 L120.9,17.5 L123.6,18.0 L124.5,18.5 L125.6,19.6 L123.5,20.2 L126.2,21.0 L127.9,21.3 L129.5,22.4 L131.3,22.5 L130.9,23.4 L129.0,24.8 L127.6,24.3 L125.9,23.1 L124.4,23.3 L124.3,24.0 L125.5,24.7 L127.0,25.3 L127.4,25.6 L128.1,26.8 L127.8,27.7 L126.4,27.4 L123.6,26.4 L125.1,27.5 L126.3,28.2 L126.5,28.6 L123.5,28.1 L121.1,27.4 L119.7,26.8 L120.1,26.5 L118.5,25.8 L116.9,25.2 L116.9,25.6 L113.7,25.8 L112.7,25.4 L113.4,24.4 L115.5,24.4 L117.8,24.3 L117.5,23.8 L117.8,23.2 L119.3,22.0 L119.0,21.4 L118.5,21.0 L116.8,20.4 L114.6,20.0 L115.3,19.7 L114.1,18.9 L113.1,18.8 L112.3,18.4 L111.7,18.8 L109.7,18.9 L105.6,18.7 L103.3,18.3 L101.5,18.1 L100.5,17.7 L101.7,17.1 L100.1,17.1 L99.8,15.8 L100.6,14.7 L101.8,14.2 L104.6,13.9 L103.8,14.7 Z M88.5,13.8 L89.8,14.1 L91.8,14.0 L92.1,14.3 L91.1,14.9 L92.7,15.4 L92.5,16.6 L90.7,17.0 L89.6,16.9 L88.9,16.5 L86.1,15.5 L86.1,15.1 L88.4,15.3 L87.2,14.4 L88.5,13.8 Z M359.6,14.6 L357.9,14.6 L355.6,14.5 L355.4,14.4 L356.5,13.9 L357.8,13.8 L359.4,14.3 L359.6,14.6 Z M96.4,15.2 L95.3,16.1 L94.0,16.1 L93.3,15.0 L93.3,14.4 L93.9,13.8 L95.0,13.5 L97.3,13.5 L99.4,13.8 L97.8,14.9 L96.4,15.2 Z M66.2,16.9 L63.2,17.5 L62.6,17.0 L60.1,16.3 L60.5,15.9 L61.3,14.9 L62.3,14.1 L61.2,13.3 L65.0,13.1 L66.5,13.4 L69.4,13.4 L70.5,13.8 L71.7,14.3 L70.3,14.6 L67.5,15.5 L66.2,16.4 L66.2,16.9 Z M367.5,12.3 L366.2,12.8 L364.4,12.7 L362.4,12.2 L362.6,11.8 L364.7,12.0 L367.5,12.3 Z M96.0,12.4 L95.4,12.9 L93.8,12.8 L92.4,12.5 L93.0,11.9 L94.6,11.6 L95.6,12.0 L96.0,12.4 Z M361.2,11.7 L360.3,12.6 L356.2,12.6 L354.4,12.9 L352.2,12.1 L352.8,11.2 L354.3,11.0 L357.2,11.1 L361.2,11.7 Z M90.6,10.3 L91.4,10.9 L91.4,11.5 L90.9,12.4 L89.1,12.5 L87.9,12.3 L87.9,11.6 L86.1,11.7 L86.0,10.8 L87.2,10.8 L88.9,10.4 L90.5,10.4 L90.6,10.3 Z M79.8,10.9 L80.2,11.4 L81.2,11.2 L82.4,11.2 L82.6,11.8 L81.9,12.4 L78.1,12.6 L75.3,13.1 L73.6,13.2 L73.5,12.8 L75.8,12.2 L70.8,12.4 L69.2,12.1 L70.7,10.9 L71.8,10.6 L74.9,11.0 L76.9,11.7 L78.8,11.8 L77.2,10.6 L78.2,10.2 L79.4,10.3 L79.8,10.9 Z M263.9,17.7 L263.3,17.8 L259.6,17.7 L259.3,17.1 L257.3,16.8 L257.2,16.1 L258.3,15.9 L258.3,15.2 L260.5,14.1 L259.5,14.0 L262.1,12.9 L261.8,12.3 L264.3,11.7 L268.0,10.9 L271.7,10.6 L273.6,10.2 L275.7,10.0 L276.5,10.5 L275.8,10.9 L271.8,11.5 L268.4,12.1 L265.0,13.3 L263.3,14.5 L261.6,15.7 L261.8,16.7 L263.9,17.7 Z M94.8,9.8 L96.0,10.2 L98.2,10.2 L99.2,10.6 L98.9,11.1 L100.2,11.4 L100.9,11.7 L102.4,11.7 L104.0,11.8 L105.8,11.5 L108.1,11.4 L109.9,11.5 L111.0,12.0 L111.3,12.5 L110.6,12.8 L108.9,13.1 L107.5,13.0 L104.3,13.1 L102.1,13.2 L100.3,13.0 L97.3,12.6 L96.9,11.9 L96.8,11.3 L95.7,10.8 L93.4,10.6 L92.1,10.2 L92.5,9.7 L94.8,9.8 Z M70.9,9.1 L70.7,10.1 L69.9,10.5 L68.8,10.6 L66.8,11.1 L65.0,11.3 L63.5,11.0 L63.5,11.0 L65.4,10.1 L67.7,9.3 L69.4,9.3 L70.9,9.1 Z M318.9,10.0 L319.2,10.6 L320.2,10.3 L323.4,10.3 L325.9,10.9 L326.8,11.4 L326.5,12.0 L325.3,12.4 L322.4,13.1 L321.6,13.4 L322.9,13.6 L324.6,13.9 L325.6,13.7 L326.1,14.5 L326.6,14.2 L328.4,14.0 L332.0,14.2 L332.2,14.7 L336.9,14.9 L337.0,14.0 L339.3,14.2 L341.1,14.2 L342.9,14.8 L343.4,15.6 L342.7,16.2 L344.1,17.1 L345.9,17.6 L346.9,16.3 L348.7,16.9 L350.6,16.6 L352.8,16.9 L353.6,16.6 L355.4,16.8 L354.6,15.6 L356.1,15.1 L366.1,15.9 L367.1,16.6 L370.0,17.6 L374.5,17.3 L376.7,17.5 L377.6,18.1 L377.5,19.0 L378.8,19.3 L380.3,19.1 L382.3,19.0 L384.4,19.3 L386.5,19.1 L388.4,20.2 L389.8,19.8 L388.9,19.1 L389.4,18.5 L392.9,18.8 L395.2,18.8 L398.4,19.4 L400.0,19.9 L400.0,24.9 L400.0,24.9 L398.6,25.4 L397.1,25.3 L398.1,26.0 L398.8,27.0 L399.3,27.3 L399.4,27.8 L399.1,28.2 L397.1,27.9 L394.0,28.8 L393.0,29.0 L391.3,29.9 L389.7,30.6 L389.3,31.2 L387.7,30.3 L384.8,31.3 L384.3,30.8 L383.2,31.4 L381.7,31.2 L381.4,32.0 L380.0,33.2 L380.1,33.7 L381.3,34.0 L381.2,35.8 L380.1,35.8 L379.7,36.9 L380.1,37.4 L378.2,38.1 L377.8,39.5 L376.1,39.8 L375.8,41.0 L374.2,42.2 L373.8,41.3 L373.3,39.5 L372.7,36.8 L373.2,35.0 L374.2,34.3 L374.2,33.7 L376.0,33.4 L377.9,31.9 L379.9,30.6 L381.9,29.6 L382.7,27.9 L381.4,28.0 L380.7,29.0 L377.9,30.4 L377.0,28.8 L374.1,29.3 L371.4,31.3 L372.3,32.1 L369.8,32.4 L368.1,32.5 L368.2,31.7 L366.4,31.5 L365.0,32.1 L361.7,31.9 L358.0,32.2 L354.4,34.6 L350.1,37.6 L351.9,37.7 L352.4,38.5 L353.5,38.8 L354.2,38.2 L355.4,38.2 L357.1,39.6 L357.1,40.7 L356.2,41.9 L356.1,43.4 L355.6,45.4 L353.9,47.2 L353.6,48.0 L352.1,49.5 L350.6,50.9 L349.9,51.6 L348.4,52.4 L347.7,52.4 L347.0,51.8 L345.5,52.7 L345.3,53.1 L344.9,53.0 L344.4,53.5 L344.1,53.9 L344.1,54.8 L343.5,55.0 L343.3,55.3 L342.9,55.6 L342.2,55.8 L341.7,56.2 L341.7,56.7 L341.5,56.8 L342.0,57.0 L342.6,57.6 L343.6,59.0 L343.8,59.9 L343.9,61.3 L343.4,62.0 L342.4,62.2 L341.5,62.7 L340.5,62.8 L340.4,62.2 L340.6,61.2 L340.1,59.9 L341.0,59.7 L340.2,58.7 L339.7,58.4 L339.5,58.7 L339.2,58.8 L339.2,58.5 L338.9,58.4 L338.6,58.2 L338.9,57.7 L339.1,57.5 L339.0,57.3 L339.3,56.6 L339.2,56.4 L338.6,56.3 L338.1,56.0 L336.5,56.3 L335.7,56.9 L334.5,57.2 L335.1,56.7 L334.9,56.2 L335.7,55.3 L335.2,54.7 L334.2,55.1 L332.9,56.0 L332.2,56.8 L331.2,56.8 L330.6,57.4 L331.2,58.3 L332.1,58.5 L332.1,59.0 L333.0,59.4 L334.2,58.5 L335.2,59.0 L336.0,59.0 L336.1,59.7 L334.6,60.0 L334.0,60.7 L333.0,61.3 L332.4,62.2 L333.6,62.9 L334.0,64.1 L334.7,65.2 L335.5,66.2 L335.4,67.1 L334.7,67.4 L335.0,68.1 L335.7,68.5 L335.5,69.5 L335.2,70.5 L334.6,70.6 L333.8,71.9 L332.9,73.6 L331.8,75.0 L330.3,76.2 L328.8,77.2 L327.5,77.4 L326.8,77.9 L326.5,77.5 L325.8,78.1 L324.3,78.8 L323.1,79.0 L322.7,80.3 L322.1,80.3 L321.8,79.4 L322.1,79.0 L320.6,78.6 L320.1,78.8 L318.6,79.8 L317.6,81.0 L317.4,81.9 L318.3,83.2 L319.3,84.8 L320.3,85.6 L321.0,86.6 L321.5,88.9 L321.3,91.0 L320.4,91.9 L319.1,92.7 L318.2,93.7 L316.8,94.8 L316.4,94.0 L316.8,93.2 L315.9,92.5 L315.0,92.3 L314.5,91.7 L314.0,90.4 L313.0,89.8 L312.0,89.8 L312.2,88.9 L311.2,88.9 L311.1,90.2 L310.5,92.1 L310.2,93.1 L310.2,94.0 L311.0,94.1 L311.4,95.2 L311.6,96.3 L312.2,97.0 L312.9,97.1 L313.5,97.8 L313.7,97.9 L314.4,98.7 L314.9,99.5 L314.9,100.3 L314.8,100.9 L314.9,101.3 L315.0,102.1 L315.4,102.4 L315.8,103.5 L315.8,103.9 L315.0,104.0 L314.0,103.1 L312.7,102.1 L312.5,101.5 L311.9,100.6 L311.7,99.6 L311.3,98.9 L311.5,98.0 L311.2,97.5 L310.8,97.0 L310.6,96.4 L310.0,95.7 L309.4,95.1 L309.3,95.8 L309.1,95.2 L309.2,94.4 L309.5,93.2 L309.4,92.3 L309.7,91.3 L309.4,90.6 L309.5,89.2 L309.0,88.6 L308.6,87.1 L308.4,85.5 L308.0,84.5 L307.2,85.1 L306.0,86.0 L305.3,85.9 L304.7,85.6 L305.0,84.1 L304.8,82.9 L303.9,81.5 L304.1,81.0 L303.4,80.9 L302.6,79.9 L302.3,79.2 L302.3,78.6 L302.0,78.0 L301.6,77.3 L300.6,77.2 L300.7,77.7 L300.3,78.4 L299.8,78.2 L299.7,78.4 L299.4,78.2 L298.9,78.1 L298.8,78.6 L298.0,78.6 L296.6,78.8 L296.7,79.8 L296.1,80.5 L294.5,81.3 L293.3,82.8 L292.4,83.6 L291.3,84.4 L291.3,85.0 L290.8,85.3 L289.8,85.7 L289.2,85.8 L288.9,86.7 L289.1,88.3 L289.2,89.4 L288.7,90.6 L288.7,92.7 L288.2,92.7 L287.7,93.7 L288.0,94.1 L287.0,94.4 L286.6,95.3 L286.2,95.6 L285.1,94.5 L284.6,92.7 L284.2,91.5 L283.8,90.9 L283.2,89.7 L282.9,88.1 L282.7,87.4 L281.7,85.7 L281.2,83.3 L280.9,81.7 L280.9,80.2 L280.7,79.0 L279.1,79.7 L278.3,79.6 L276.8,78.1 L277.4,77.6 L277.1,77.2 L275.8,76.1 L274.9,75.8 L274.6,74.9 L273.7,74.0 L271.7,74.2 L269.9,74.2 L268.3,74.4 L266.2,74.0 L265.0,73.7 L263.8,73.6 L263.3,72.0 L262.8,71.8 L261.9,72.0 L260.8,72.6 L259.4,72.2 L258.3,71.3 L257.2,70.9 L256.5,69.7 L255.7,68.1 L255.1,68.3 L254.4,67.9 L254.0,68.4 L253.3,68.3 L253.5,68.9 L253.4,69.1 L253.8,70.1 L254.2,71.1 L254.8,71.4 L255.0,71.9 L255.7,72.4 L255.8,72.9 L255.7,73.3 L255.8,73.7 L256.1,74.1 L256.3,74.5 L256.5,74.8 L256.4,73.9 L256.7,73.2 L257.0,73.1 L257.3,73.5 L257.3,74.2 L257.1,74.9 L257.3,75.4 L257.5,75.4 L257.5,75.7 L258.4,75.5 L259.3,75.5 L260.0,75.6 L260.8,74.7 L261.6,73.9 L262.3,73.2 L262.6,72.7 L262.8,72.9 L262.7,73.4 L262.5,73.6 L262.7,74.6 L263.2,75.4 L263.8,75.9 L264.6,76.0 L265.3,76.3 L265.8,77.0 L266.1,77.4 L266.5,77.5 L266.5,77.8 L266.0,78.6 L265.9,78.9 L265.4,79.3 L265.0,80.2 L264.5,80.1 L264.3,80.4 L264.1,81.0 L264.2,81.8 L264.1,82.0 L263.6,82.0 L262.9,82.5 L262.8,83.1 L262.5,83.3 L261.8,83.3 L261.4,83.6 L261.4,84.1 L260.9,84.5 L260.3,84.4 L259.5,84.8 L259.0,84.8 L258.2,85.2 L258.0,85.7 L258.0,86.2 L256.9,86.7 L255.1,87.3 L254.1,88.1 L253.6,88.2 L253.3,88.1 L252.6,88.6 L251.9,88.9 L251.0,88.9 L250.7,89.0 L250.5,89.3 L250.2,89.4 L250.0,89.8 L249.4,89.7 L249.1,89.9 L248.3,89.8 L248.0,89.1 L248.1,88.4 L247.9,88.1 L247.7,87.1 L247.3,86.6 L247.6,86.6 L247.4,86.0 L247.6,85.8 L247.5,85.2 L247.4,84.7 L247.1,84.3 L247.0,83.8 L246.4,83.4 L245.8,82.3 L245.5,81.3 L244.7,80.5 L244.2,80.3 L243.5,79.1 L243.4,78.2 L243.4,77.5 L242.8,76.1 L242.2,75.6 L241.6,75.4 L241.3,74.7 L241.3,74.4 L241.0,73.7 L240.7,73.5 L240.3,72.5 L239.6,71.5 L239.0,70.7 L238.5,70.7 L238.7,70.0 L238.7,69.6 L238.8,69.1 L238.8,68.9 L238.5,69.4 L238.3,70.3 L237.9,71.0 L237.7,71.2 L237.3,70.8 L236.8,70.2 L236.0,68.5 L235.9,68.6 L236.4,69.9 L237.1,71.1 L237.9,73.1 L238.3,73.7 L238.7,74.4 L239.7,75.8 L239.4,76.0 L239.5,76.8 L240.8,78.0 L241.0,78.2 L241.3,79.4 L241.1,79.6 L241.2,80.9 L241.6,82.4 L242.1,82.7 L242.7,83.2 L243.3,84.6 L243.6,85.8 L244.2,86.4 L245.8,87.5 L246.4,88.2 L247.0,89.0 L247.3,89.4 L247.9,89.8 L248.1,90.1 L248.1,90.7 L247.5,90.9 L247.9,91.3 L248.3,91.5 L248.5,92.0 L249.0,92.6 L249.6,92.6 L250.6,92.2 L251.8,92.1 L252.8,91.7 L253.4,91.6 L253.8,91.4 L254.4,91.4 L254.7,91.3 L255.3,91.1 L255.8,91.0 L256.4,90.6 L256.8,90.6 L256.8,90.9 L256.7,91.7 L256.7,92.3 L256.5,92.8 L256.2,94.1 L255.6,95.5 L254.9,97.1 L254.0,98.9 L253.0,100.3 L251.7,102.0 L250.6,103.0 L249.0,104.2 L247.9,105.2 L246.7,106.7 L246.5,107.3 L246.2,107.6 L245.4,108.1 L245.2,108.6 L244.7,108.7 L244.6,109.6 L244.2,110.1 L244.0,110.9 L243.6,111.3 L243.0,112.9 L243.1,113.6 L243.8,114.0 L243.9,114.3 L243.5,115.1 L243.6,115.5 L243.5,116.1 L243.9,116.8 L244.4,118.1 L244.8,118.3 L245.0,118.9 L244.9,120.1 L245.1,121.2 L245.1,123.1 L245.3,123.8 L245.0,124.6 L244.5,125.5 L243.8,126.3 L242.8,126.7 L241.6,127.3 L240.3,128.7 L239.9,128.9 L239.1,129.8 L238.7,130.1 L238.6,131.0 L239.1,131.9 L239.3,132.6 L239.3,133.0 L239.5,132.9 L239.5,134.2 L239.3,134.7 L239.6,134.9 L239.4,135.5 L238.9,135.9 L238.0,136.3 L236.7,137.0 L236.2,137.5 L236.3,138.0 L236.6,138.1 L236.5,138.7 L236.2,139.6 L236.1,140.6 L235.8,141.2 L235.0,141.8 L234.8,142.0 L234.3,142.6 L234.0,143.3 L233.4,144.2 L232.1,145.5 L231.4,146.2 L230.5,146.8 L229.4,147.2 L228.8,147.3 L228.6,147.7 L228.0,147.5 L227.4,147.7 L226.2,147.5 L225.5,147.6 L225.1,147.6 L223.9,148.0 L223.0,148.2 L222.3,148.7 L221.8,148.7 L221.3,148.3 L221.0,148.3 L220.5,147.7 L220.4,147.9 L220.3,147.6 L220.3,146.8 L219.9,146.0 L220.3,145.8 L220.2,144.8 L219.5,143.7 L219.0,142.6 L219.0,142.6 L218.2,141.0 L217.3,140.1 L216.9,139.1 L216.7,137.9 L216.4,137.0 L216.0,135.1 L216.0,133.6 L215.8,133.0 L215.4,132.5 L214.8,131.4 L214.3,129.9 L214.0,129.2 L213.1,127.9 L213.0,127.0 L212.9,126.2 L213.1,125.1 L213.5,124.0 L213.5,123.5 L213.9,122.3 L214.2,121.8 L214.8,121.0 L215.1,120.5 L215.3,119.5 L215.2,118.8 L214.9,118.4 L214.6,117.6 L214.3,116.9 L214.4,116.6 L214.7,116.1 L214.4,114.9 L214.1,114.1 L213.6,113.3 L213.7,113.1 L213.5,112.7 L213.2,111.8 L212.3,110.5 L211.2,109.2 L210.5,108.2 L209.8,106.9 L209.8,106.5 L210.1,106.1 L210.3,105.2 L210.5,104.3 L210.3,104.1 L210.7,102.7 L210.9,101.7 L210.4,100.9 L209.9,100.7 L209.7,100.1 L209.4,99.9 L209.4,99.6 L208.3,100.0 L207.9,100.0 L207.4,100.3 L206.6,100.2 L206.0,99.4 L205.6,98.6 L204.8,97.7 L204.0,97.7 L203.0,97.7 L202.1,97.9 L201.2,98.2 L199.4,98.9 L198.8,99.3 L197.8,99.7 L196.8,99.3 L196.3,99.3 L195.5,99.1 L194.8,99.1 L193.5,99.3 L192.7,99.7 L191.6,100.1 L191.4,100.1 L191.1,100.1 L190.0,99.5 L189.0,98.6 L188.0,97.9 L187.3,97.1 L187.0,97.0 L186.2,96.5 L185.6,95.8 L185.4,95.4 L185.3,94.5 L184.8,93.7 L184.4,93.2 L184.1,93.1 L183.8,92.8 L183.7,92.3 L183.5,92.0 L183.2,91.8 L182.6,91.3 L182.1,91.2 L181.9,90.9 L181.9,90.7 L181.5,90.4 L181.5,90.1 L181.3,89.2 L181.4,88.6 L181.0,87.7 L180.4,87.2 L180.9,87.0 L181.4,86.1 L181.7,85.5 L181.6,84.8 L181.9,84.2 L182.1,83.0 L181.9,81.8 L181.8,81.2 L181.9,80.6 L181.6,80.0 L181.0,79.4 L181.1,78.9 L181.1,78.3 L181.6,78.0 L181.9,77.4 L181.9,76.9 L182.2,76.1 L182.9,75.3 L183.2,75.1 L183.5,74.4 L183.6,73.7 L184.0,72.9 L184.7,72.5 L185.4,71.2 L186.0,70.7 L187.0,70.6 L187.9,69.7 L188.4,69.4 L189.4,68.4 L189.1,66.8 L189.5,65.7 L189.7,65.1 L190.4,64.3 L191.5,63.7 L192.3,63.2 L193.1,61.9 L193.4,61.1 L194.2,61.1 L194.9,61.7 L196.0,61.6 L197.1,61.8 L197.6,61.9 L198.7,61.2 L199.9,61.0 L200.6,60.5 L201.6,60.1 L203.5,59.9 L205.4,59.8 L205.9,59.9 L207.0,59.4 L208.1,59.4 L208.6,59.7 L209.4,59.7 L210.6,59.2 L211.3,59.3 L211.3,59.9 L212.3,59.5 L212.3,59.7 L211.8,60.3 L211.8,60.9 L212.2,61.2 L212.0,62.3 L211.3,62.9 L211.5,63.6 L212.1,63.6 L212.3,64.2 L212.8,64.4 L214.1,64.8 L214.5,64.7 L215.5,64.9 L216.9,65.5 L217.5,66.6 L218.5,66.8 L220.0,67.3 L221.2,67.9 L221.7,67.6 L222.3,67.1 L222.0,66.1 L222.4,65.5 L223.2,64.9 L223.9,64.7 L225.4,65.0 L225.8,65.6 L226.2,65.6 L226.6,65.8 L227.7,65.9 L228.0,66.3 L229.4,66.3 L230.5,66.6 L231.6,67.0 L232.1,67.2 L233.0,66.8 L233.4,66.4 L234.4,66.3 L235.2,66.5 L235.5,67.1 L235.8,66.7 L236.7,67.0 L237.5,67.1 L238.1,66.8 L238.4,66.4 L238.3,66.3 L238.6,65.7 L238.8,64.8 L239.0,64.5 L239.0,64.4 L239.4,63.4 L240.0,62.6 L240.0,62.5 L239.9,61.6 L240.2,61.0 L239.8,60.5 L240.2,60.0 L239.5,60.1 L238.6,59.8 L237.8,60.6 L236.1,60.7 L235.2,60.0 L234.0,60.0 L233.8,60.5 L233.0,60.6 L231.9,60.0 L230.7,60.0 L230.1,58.8 L229.2,58.1 L229.8,57.1 L229.1,56.5 L230.3,55.3 L232.0,55.3 L232.5,54.3 L234.6,54.5 L235.9,53.7 L237.2,53.4 L239.1,53.3 L241.0,54.2 L242.6,54.7 L243.9,54.5 L244.9,54.6 L246.2,54.0 L246.3,53.4 L246.1,52.6 L245.4,52.1 L244.8,52.0 L244.4,51.6 L243.0,50.5 L241.7,50.1 L240.8,49.4 L241.6,49.2 L242.5,48.1 L241.9,47.6 L243.5,47.1 L243.5,46.8 L242.5,47.0 L241.6,47.1 L240.8,47.5 L239.8,47.6 L238.8,48.1 L238.9,48.8 L239.5,49.1 L240.6,49.1 L240.4,49.5 L239.2,49.7 L237.6,50.4 L237.0,50.2 L237.3,49.6 L236.1,49.2 L236.3,49.0 L237.3,48.6 L237.0,48.3 L235.3,48.0 L235.2,47.5 L234.2,47.7 L233.8,48.4 L232.9,49.3 L232.9,49.6 L232.4,49.9 L232.0,49.8 L231.7,51.3 L231.2,51.8 L230.7,52.7 L231.1,53.4 L231.2,53.8 L232.2,54.2 L232.0,54.6 L230.7,54.6 L230.2,55.0 L229.3,55.7 L228.9,55.1 L229.0,54.8 L228.3,54.8 L227.7,54.7 L226.3,55.0 L227.1,55.7 L226.6,55.9 L225.9,55.9 L225.3,55.3 L225.1,55.5 L225.4,56.3 L225.9,56.9 L225.5,57.1 L226.1,57.7 L226.7,58.1 L226.7,58.8 L225.7,58.4 L226.0,59.1 L225.3,59.2 L225.7,60.3 L225.0,60.3 L224.1,59.8 L223.7,58.8 L223.5,58.0 L223.0,57.4 L222.5,56.7 L222.4,56.3 L222.2,56.2 L222.2,56.0 L221.6,55.6 L221.5,55.0 L221.6,54.1 L221.7,53.7 L221.5,53.5 L221.3,53.4 L221.0,53.0 L220.5,52.8 L219.5,52.3 L218.8,51.9 L217.8,51.5 L216.9,50.6 L217.1,50.5 L216.6,50.0 L216.6,49.6 L215.8,49.4 L215.5,49.9 L215.2,49.5 L215.2,49.1 L215.2,49.0 L215.5,48.9 L214.6,48.7 L213.7,49.2 L213.8,49.8 L213.6,50.2 L214.0,50.8 L215.0,51.4 L215.6,52.4 L216.8,53.4 L217.7,53.4 L218.0,53.7 L217.7,53.9 L218.7,54.4 L219.5,54.8 L220.4,55.4 L220.5,55.7 L220.3,56.1 L219.7,55.5 L218.7,55.3 L218.3,56.1 L219.1,56.6 L218.9,57.2 L218.5,57.3 L217.9,58.4 L217.4,58.5 L217.4,58.1 L217.7,57.4 L217.9,57.1 L217.5,56.4 L217.1,55.8 L216.7,55.6 L216.3,55.1 L215.6,54.9 L215.1,54.4 L214.3,54.3 L213.5,53.7 L212.4,52.9 L211.7,52.2 L211.3,51.0 L210.8,50.9 L209.9,50.4 L209.4,50.6 L208.7,51.2 L208.3,51.3 L207.3,52.0 L205.1,51.6 L203.4,52.0 L203.3,52.8 L203.4,53.5 L202.3,54.3 L200.9,54.6 L200.8,55.0 L200.1,55.7 L199.7,56.7 L200.1,57.4 L199.5,58.0 L199.2,58.8 L198.4,59.0 L197.6,60.0 L196.2,60.0 L195.1,60.0 L194.4,60.4 L194.0,60.9 L193.5,60.8 L193.1,60.4 L192.8,59.7 L191.7,59.5 L191.3,59.8 L190.7,59.6 L190.1,59.7 L190.3,58.8 L190.2,58.0 L189.7,57.9 L189.4,57.4 L189.5,56.6 L189.9,56.2 L190.0,55.7 L190.3,54.9 L190.2,54.4 L190.0,53.9 L190.0,53.5 L190.0,52.6 L189.6,52.1 L191.1,51.2 L192.5,51.4 L194.0,51.4 L195.2,51.6 L196.1,51.6 L197.9,51.6 L198.5,50.9 L198.7,48.4 L197.5,47.1 L196.7,46.5 L195.0,46.0 L194.9,45.1 L196.3,44.8 L198.2,45.1 L197.9,43.7 L198.9,44.3 L201.5,43.3 L201.8,42.3 L202.8,42.0 L203.7,41.8 L204.3,41.4 L205.2,39.6 L206.7,39.1 L207.7,39.1 L207.9,38.9 L208.8,38.8 L209.0,39.1 L209.8,38.5 L209.5,38.0 L209.5,37.3 L209.0,36.6 L209.0,35.3 L209.2,35.0 L209.5,34.6 L210.5,34.5 L210.9,34.2 L211.8,33.9 L211.7,34.5 L211.4,34.9 L211.5,35.2 L212.1,35.4 L211.9,35.9 L211.5,35.8 L210.7,36.7 L211.0,37.3 L211.0,37.7 L212.2,38.0 L212.2,38.5 L213.3,38.2 L213.9,37.9 L215.2,38.4 L215.7,38.8 L216.4,38.4 L218.2,37.8 L219.6,37.4 L220.7,37.6 L220.8,37.9 L221.8,38.0 L222.1,37.4 L223.6,37.0 L223.4,36.0 L223.4,35.0 L224.0,34.2 L225.0,33.8 L225.9,34.8 L226.8,34.7 L227.0,33.8 L227.1,33.0 L226.7,33.2 L226.0,32.8 L225.9,32.0 L227.3,31.7 L228.7,31.5 L229.9,31.7 L231.1,31.7 L232.4,31.0 L231.2,30.4 L229.2,30.5 L227.2,31.0 L225.4,31.2 L224.8,30.5 L223.7,30.1 L223.9,28.9 L223.4,27.8 L223.9,27.1 L224.9,26.3 L227.5,24.9 L228.2,24.7 L228.1,24.2 L226.6,23.6 L224.6,23.9 L223.6,24.8 L223.7,25.6 L222.0,26.6 L219.8,27.6 L219.0,29.4 L219.8,30.2 L220.9,30.9 L219.9,32.3 L218.7,32.6 L218.3,34.7 L217.6,35.9 L216.3,35.8 L215.7,36.7 L214.4,36.8 L214.0,35.6 L213.1,34.2 L212.3,32.5 L211.5,31.7 L209.3,33.1 L207.8,33.4 L206.3,32.8 L205.9,31.5 L205.5,28.6 L206.6,27.8 L209.5,26.7 L211.7,25.5 L213.7,23.7 L216.4,21.3 L218.3,20.4 L221.3,18.8 L223.8,18.3 L225.6,18.4 L227.3,17.3 L229.3,17.4 L231.3,17.1 L234.8,18.1 L233.3,18.4 L234.6,19.2 L235.7,18.7 L237.5,19.5 L240.6,19.8 L244.8,21.2 L245.6,21.8 L245.7,22.6 L244.5,23.3 L242.6,23.6 L237.7,22.6 L236.9,22.8 L238.7,23.7 L238.8,25.6 L240.3,25.9 L241.1,26.3 L241.3,25.7 L240.6,25.1 L241.3,24.6 L244.0,25.4 L244.9,25.1 L244.2,24.2 L246.8,23.0 L247.8,23.1 L248.8,23.5 L249.5,22.6 L248.6,21.9 L249.1,21.2 L248.3,20.4 L251.4,20.8 L252.0,21.5 L250.6,21.6 L250.6,22.3 L251.5,22.8 L253.2,22.5 L253.5,21.7 L255.8,21.1 L259.7,20.0 L260.5,20.1 L259.4,20.9 L260.8,21.0 L261.6,20.6 L263.7,20.5 L265.3,20.0 L266.6,20.8 L267.9,19.9 L266.7,19.2 L267.3,18.8 L270.6,19.2 L272.1,19.6 L276.1,21.0 L276.9,20.3 L275.7,19.7 L275.7,19.4 L274.4,19.3 L274.7,18.7 L274.1,17.7 L274.1,17.3 L276.2,16.2 L276.9,15.1 L277.7,14.8 L280.7,15.2 L280.9,15.9 L279.8,16.9 L280.5,17.3 L280.9,18.1 L280.6,19.8 L281.9,20.6 L281.4,21.4 L279.2,23.2 L280.5,23.4 L280.9,22.9 L282.1,22.6 L282.4,22.0 L283.4,21.4 L282.7,20.7 L283.3,19.9 L282.0,19.8 L281.8,19.1 L282.7,17.8 L281.2,16.8 L283.2,16.0 L283.0,15.1 L283.5,15.1 L284.1,15.8 L283.7,17.0 L284.8,17.2 L284.3,16.3 L286.2,15.8 L288.5,15.7 L290.6,16.4 L289.6,15.4 L289.5,14.1 L291.4,13.8 L294.1,13.9 L296.5,13.7 L295.6,13.1 L296.9,12.3 L298.1,12.2 L300.3,11.6 L303.2,11.5 L303.6,11.1 L306.5,11.0 L307.4,11.3 L309.9,10.6 L312.0,10.6 L312.3,10.1 L313.3,9.6 L315.9,9.1 L317.9,9.5 L316.3,9.8 L318.9,10.0 Z M95.7,9.3 L95.2,9.3 L93.1,9.2 L92.8,8.9 L95.1,8.9 L95.9,9.1 L95.7,9.3 Z M77.6,9.1 L75.5,9.4 L73.9,9.0 L74.8,8.6 L76.4,8.5 L77.9,8.7 L77.6,9.1 Z M227.5,8.9 L225.0,9.4 L223.0,9.1 L223.8,8.8 L223.1,8.4 L225.4,8.1 L225.9,8.6 L227.5,8.9 Z M78.2,7.9 L76.8,8.2 L75.0,8.2 L75.0,8.0 L76.1,7.6 L76.7,7.7 L78.2,7.9 Z M93.5,8.6 L91.9,8.9 L91.0,8.6 L90.5,8.1 L90.4,7.6 L91.8,7.7 L92.5,7.7 L93.8,8.2 L93.5,8.6 Z M88.8,8.3 L89.3,8.8 L87.4,8.7 L85.6,8.3 L83.1,8.2 L84.2,7.8 L82.9,7.5 L82.8,7.1 L85.0,7.2 L88.0,7.7 L88.8,8.3 Z M316.8,8.3 L310.5,8.8 L312.5,7.2 L313.4,7.0 L314.3,7.1 L317.1,7.8 L316.8,8.3 Z M220.3,6.6 L223.9,7.5 L221.1,8.0 L220.5,8.9 L219.5,9.1 L219.0,10.2 L217.7,10.2 L215.3,9.5 L216.3,9.0 L214.6,8.7 L212.5,7.6 L211.6,6.6 L214.6,6.2 L215.2,6.6 L216.8,6.6 L217.2,6.2 L218.9,6.1 L220.3,6.6 Z M228.3,5.7 L230.5,6.1 L228.8,6.8 L225.6,7.0 L222.3,6.7 L222.1,6.4 L220.5,6.4 L219.3,5.8 L222.7,5.5 L224.3,5.8 L225.5,5.4 L228.3,5.7 Z M256.8,5.5 L255.3,5.7 L254.3,5.8 L254.2,6.0 L252.9,6.2 L251.7,5.9 L252.3,5.5 L249.8,5.5 L252.0,5.2 L253.7,5.2 L253.9,5.6 L254.6,5.3 L255.6,5.1 L257.2,5.3 L256.8,5.5 Z M311.0,7.6 L308.6,7.8 L305.5,7.4 L303.7,6.9 L302.8,6.0 L301.3,5.8 L304.2,4.9 L306.6,4.7 L308.8,5.3 L311.3,6.5 L311.0,7.6 Z M103.3,6.6 L104.7,7.0 L103.1,7.4 L101.1,8.3 L99.1,8.4 L96.8,8.3 L95.6,7.8 L95.6,7.3 L96.5,7.0 L94.5,7.0 L93.2,6.6 L92.5,6.0 L93.3,5.5 L94.1,5.1 L95.2,5.0 L94.7,4.7 L97.3,4.6 L98.7,5.3 L100.6,5.6 L102.4,5.8 L103.3,6.6 Z M123.9,2.4 L126.9,2.4 L129.2,2.6 L131.3,2.9 L131.2,3.3 L128.5,3.8 L125.8,4.1 L124.8,4.3 L127.2,4.3 L124.6,5.1 L122.8,5.4 L120.9,6.5 L118.6,6.7 L117.9,6.9 L114.5,7.0 L116.1,7.2 L115.3,7.4 L116.2,8.0 L115.2,8.5 L113.5,8.8 L112.9,9.3 L111.4,9.7 L111.5,10.0 L113.4,9.9 L113.5,10.2 L110.5,11.0 L107.6,10.6 L104.3,10.8 L102.7,10.7 L100.6,10.6 L100.4,10.0 L102.5,9.7 L101.9,8.8 L102.6,8.7 L105.6,9.3 L104.1,8.5 L102.3,8.2 L103.2,7.7 L105.1,7.5 L105.5,7.0 L103.9,6.5 L103.4,5.9 L106.4,5.9 L107.3,6.1 L109.1,5.6 L106.6,5.5 L102.7,5.6 L100.7,5.1 L99.8,4.6 L98.5,4.3 L98.2,3.9 L99.9,3.6 L101.2,3.6 L103.4,3.4 L105.0,2.9 L106.4,3.0 L107.6,3.3 L108.4,2.7 L109.9,2.5 L111.9,2.3 L115.3,2.3 L115.9,2.4 L119.1,2.2 L121.5,2.3 L123.9,2.4 Z M169.9,1.8 L176.8,2.8 L174.8,3.3 L170.5,3.4 L164.6,3.5 L165.1,3.7 L169.0,3.6 L172.4,4.0 L174.6,3.6 L175.5,4.1 L174.3,4.8 L177.1,4.3 L182.5,3.8 L185.8,4.1 L186.4,4.6 L181.9,5.5 L181.3,5.8 L177.7,6.0 L180.3,6.0 L179.0,7.0 L178.1,7.8 L178.1,9.1 L179.5,9.9 L177.7,10.0 L175.9,10.4 L178.0,11.1 L178.2,12.1 L177.0,12.2 L178.5,13.3 L176.0,13.4 L177.3,13.9 L176.9,14.3 L175.4,14.5 L173.8,14.5 L175.2,15.4 L175.2,15.9 L173.0,15.4 L172.5,15.7 L174.0,16.0 L175.4,16.8 L175.8,17.8 L173.8,18.0 L173.0,17.6 L171.6,16.8 L172.0,17.7 L170.7,18.3 L173.6,18.4 L175.2,18.5 L172.2,19.5 L169.2,20.5 L165.9,20.9 L164.7,21.0 L163.5,21.4 L162.0,22.7 L159.6,23.6 L158.8,23.7 L157.4,24.0 L155.8,24.3 L154.8,25.0 L154.8,25.9 L154.2,26.7 L152.4,27.7 L152.9,28.7 L152.4,29.7 L151.8,30.9 L150.2,31.0 L148.6,30.0 L146.4,30.0 L145.3,29.3 L144.6,28.1 L142.6,26.5 L142.1,25.7 L141.9,24.6 L140.4,23.5 L140.8,22.5 L140.0,22.1 L141.1,20.7 L142.8,20.2 L143.2,19.7 L143.5,18.7 L142.2,19.1 L141.6,19.3 L140.6,19.5 L139.2,19.1 L139.2,18.3 L139.6,17.6 L140.6,17.6 L142.9,17.9 L141.0,17.1 L140.0,16.7 L138.9,16.9 L138.0,16.6 L139.2,15.4 L138.5,14.9 L137.6,14.1 L136.3,12.8 L134.9,12.3 L134.9,11.8 L131.9,11.0 L129.6,11.0 L126.6,11.0 L123.9,11.1 L122.6,10.7 L120.7,9.9 L123.6,9.5 L125.8,9.5 L121.1,9.1 L118.6,8.6 L118.7,8.2 L122.9,7.6 L127.0,7.0 L127.4,6.5 L124.4,6.1 L125.4,5.6 L129.2,4.7 L130.9,4.6 L130.4,4.0 L133.0,3.7 L136.4,3.5 L139.9,3.5 L141.1,3.9 L144.0,3.2 L146.7,3.6 L148.2,3.7 L150.5,4.1 L147.9,3.5 L148.0,2.9 L151.8,2.2 L155.7,2.3 L157.1,1.8 L161.0,1.7 L169.9,1.8 Z"/></svg>
